<?xml version="1.0" encoding="UTF-8"?>
<svg id="Layer_1" xmlns="http://www.w3.org/2000/svg" version="1.1" viewBox="0 0 285.1 108.3">
  <!-- Generator: Adobe Illustrator 29.4.0, SVG Export Plug-In . SVG Version: 2.1.0 Build 152)  -->
  <defs>
    <style>
      .st0 {
        font-family: Nunito-Black, Nunito;
        font-size: 31px;
        font-weight: 800;
      }

      .st0, .st1 {
        fill: #fff;
      }
    </style>
  </defs>
  <g id="Layer_11" data-name="Layer_1">
    <g>
      <path class="st1" d="M20.8,28.3c1.9-1.3,3.7-2.3,5.7-2.9,3.7-1.3,7.5-1.7,11.5-1.4,7.9.6,14.3,4.1,19.9,9.5,3.9,3.8,6.6,8.3,7.9,13.7.5,2.2.7,4.4.7,6.7v23.8c0,5.2,3.1,9.4,8.1,11,1.4.4,2.8.7,4.2.7s3.9,0,5.8.4c4.1,1,6.8,4.5,7,8.6.3,5.7-3.8,9.4-8.7,9.8-6.7.5-13.3-.2-19.5-3.2-7.3-3.6-12.8-9-15.9-16.7-.9-2.4-1.5-4.8-1.6-7.4,0-1.2,0-2.4,0-3.6,0-7.6,0-15.1,0-22.7.2-6.5-5.1-10.9-10-11.7-4.1-.7-7.8,0-11,2.8-2.6,2.1-4,4.9-4,8.3v21.3c0,6.1-4.7,9.3-8.9,9.6-1.6,0-3.2,0-4.7-.3-4.5-.9-7.2-4.6-7.2-8.8V10.2C0,6.3,2.5,3.3,5.5,2c3.1-1.2,6.2-1.2,9.3-.1,3.8,1.4,6,4.6,6,8.6v17.8"/>
      <path class="st1" d="M91.6,54.4v20.4c0,.9,0,1.8-.2,2.7-.6,3.4-2.7,5.7-5.8,6.9-2.9,1.1-5.9,1.1-8.8,0-3.7-1.4-5.9-4.5-5.9-8.5v-42.5c0-5.1,3.5-8.2,7.3-9.1,2.7-.6,5.3-.4,7.9.4,3.4,1.1,5.3,3.7,5.5,7.4v22.4"/>
      <path class="st1" d="M91.6,10.7c.2,5-4.3,10.5-10.4,10.5s-10.8-5.3-10.5-11.4C71,4.7,75.9,0,81.3,0s10.6,5.4,10.3,10.7"/>
    </g>
    <text class="st0" transform="translate(100.6 48.1)"><tspan x="0" y="0">Let’s Drink </tspan><tspan x="0" y="37.2">Better.</tspan></text>
  </g>
</svg>