<?xml version="1.0" encoding="UTF-8"?>
<svg xmlns="http://www.w3.org/2000/svg" version="1.1" viewBox="0 0 229.6 72.2">
  <defs>
    <style>
      .cls-1 {
        fill: #fff;
      }
    </style>
  </defs>
  <!-- Generator: Adobe Illustrator 28.7.3, SVG Export Plug-In . SVG Version: 1.2.0 Build 164)  -->
  <g>
    <g id="Layer_1">
      <path class="cls-1" d="M8.7,11.3c.5-.2.7-.3,1-.5,4-1.9,7.9-1.5,11.6.7,4.1,2.6,6.4,6.2,6.3,11.3,0,2.9,0,5.8,0,8.7-.1,3.3,2.3,5.3,5.2,5.3.6,0,1.1,0,1.7,0,2.1.2,3.4,1.7,3.5,3.7,0,1.9-1.2,3.5-3.1,3.9-6.6,1.6-14.3-3.3-15.7-9.9-.2-.9-.3-1.7-.3-2.6,0-3.2,0-6.3,0-9.5,0-2-1.1-4.2-3.8-4.9-2.3-.6-5,.4-6.1,2.4-.4.7-.5,1.6-.5,2.4,0,2.8,0,5.5,0,8.3,0,1.9-.7,3.3-2.4,4-1.7.7-3.4.5-4.9-.6C.3,33.4,0,32.3,0,31c0-7.1,0-14.2,0-21.4s0-3.6,0-5.5C0,2.3,1,1.1,2.7.5c1.8-.6,3.9,0,5,1.2.6.8.9,1.6.9,2.6,0,2.1,0,4.2,0,6.2,0,.2,0,.4.1.8"/>
      <path class="cls-1" d="M46.4,34.1c-.9.2-1.8.4-2.7.4-4.8.5-8.7-1.3-11.9-4.9-1.4-1.6-2-3.7-2-5.8,0-3.4,0-6.9,0-10.3,0-2.8,2.7-4.7,5.3-3.8,1.7.6,2.7,1.9,2.7,3.8,0,2.5,0,5,0,7.5,0,.6,0,1.2,0,1.9.1,2.5,2,4.4,4.4,4.4,2.3,0,4.3-1.9,4.3-4.4,0-3,0-6,0-9,0-1.5.6-2.6,1.7-3.5,1.2-.9,2.6-1,4-.4,1.4.7,2.3,1.8,2.3,3.4,0,2.5,0,5,0,7.5,0,4.4-.1,8.7,0,13.1.2,5.8-4.9,10.8-10.7,10.9-.5,0-1,0-1.6,0-1.9-.1-3.3-1.5-3.5-3.3-.2-1.6.9-3.3,2.6-3.8.6-.2,1.3-.2,2-.3,1.9-.2,3-1.5,2.9-3.3"/>
      <path class="cls-1" d="M74.3,13.4c0-3,0-6,0-9,0-2.3,2.1-4.8,5.2-3.9,1.4.4,2.4,1.6,2.5,3,0,.7,0,1.4,0,2,0,4.4,0,8.8,0,13.3,0,.5,0,.9,0,1.4.5,4.8-1,8.9-4.7,12.1-2.9,2.5-6.3,3.2-10,2.9-4.1-.4-7.2-2.3-9.4-5.6-2.8-4.3-3-8.8-.6-13.3,2.4-4.5,6.5-6.7,11.7-6.7,1.7,0,3.2,1.1,3.7,2.6.5,1.6,0,3.5-1.5,4.4-.7.4-1.5.6-2.3.6-1.8.1-3.1.8-4.2,2.2-2.1,2.9-.6,7.1,2.9,7.9,3.2.8,6.9-1.8,6.7-5.2-.2-2.9,0-5.8,0-8.7h0Z"/>
      <path class="cls-1" d="M149.4,46.5h1.8c2.9,0,5.8,0,8.7,0,.9,0,1.9.2,2.7.6,1.8,1,2.4,4.1,1.1,5.8-.8,1.1-2,1.2-3.2,1.2-3.1,0-6.1,0-9.2,0h-1.7c0,.5-.1.9-.1,1.2,0,1.8,0,3.6,0,5.5.1,2.6,2.3,4.1,4.8,3.3,1.3-.4,1.9-1.4,2.1-2.6,0-.3,0-.6,0-.9.2-1.9,1.2-3.2,3.1-3.6,1.8-.4,3.6.3,4.6,1.9.7,1.2.5,2.4.4,3.6-.4,3.3-2.1,5.9-4.7,7.8-1.9,1.4-4.3,2-6.6,1.9-3.3,0-6.2-1-8.6-3.5-1.9-2-3-4.3-3-7,0-5.7,0-11.4,0-17.1,0-1.6.8-2.8,2.2-3.4,1.5-.6,3-.6,4.3.4.9.7,1.4,1.6,1.5,2.8,0,.7,0,1.3,0,2.2"/>
      <path class="cls-1" d="M133.7,9.6c.7,0,1.2,0,1.7,0,2.8,0,5.6,0,8.4,0,.5,0,.9,0,1.4,0,2.9.4,4.3,3.1,3,5.7-.7,1.4-1.9,1.9-3.3,1.9-3.1,0-6.2,0-9.4,0h-1.7c0,.4-.2.6-.2.7,0,2.1,0,4.2,0,6.2,0,1.9,1.5,3.3,3.4,3.3,1.8,0,3.3-1.4,3.5-3.3,0-.8.2-1.7.5-2.4.9-1.7,2.8-2.3,4.7-1.8,1.6.5,2.8,2,2.8,3.9,0,5.4-4.3,10.4-9.7,11-4,.4-7.5-.4-10.4-3.4-1.9-1.9-2.9-4.3-3-7,0-5.7,0-11.4,0-17.1,0-2.2,1.6-3.7,3.8-3.7,2.3,0,4,1.3,4.2,3.5,0,.7,0,1.3,0,2.2"/>
      <path class="cls-1" d="M139.3,63.4c0,1.7,0,3.4,0,5.1-.2,3-3.3,4.6-5.8,3-1.4-.8-1.7-2.1-1.7-3.6,0-2.6,0-5.2,0-7.8,0-.5,0-1,0-1.6-.2-2-1.7-3.9-3.6-4.4-2-.6-4,.2-5.4,1.9-1.3,1.7-1.4,3.5-.6,5.3.8,1.9,2.3,2.9,4.4,3,.2,0,.4,0,.6,0,2.2.2,3.5,1.7,3.4,4,0,2.1-1.7,3.6-3.9,3.7-6.4,0-11.8-4.8-12.5-11.2-.3-2.5,0-5,1-7.3,2-4.3,5.5-6.8,10.3-7.3,7.6-.7,13.8,5,13.9,12.6,0,1.5,0,2.9,0,4.4"/>
      <path class="cls-1" d="M116.4,26.7c0-1.6,0-3.1,0-4.7-.1-2-1.2-3.5-3-4.4-1.7-.7-3.4-.7-4.9.5-2,1.5-2.5,3.7-2,5.7.5,2.2,2.3,3.6,4.6,3.8,2.8.2,4.2,1.6,4.1,4.1,0,2-1.7,3.6-3.7,3.7-6.5.2-12.3-5-12.7-11.6-.2-2.9.2-5.6,1.7-8.1,3.1-5,8.1-6.7,12.9-6,5.6.9,9.8,5.3,10.5,11,.3,2.2.3,4.4.1,6.7-.1,1.5,0,3.1,0,4.7,0,1.5-.9,2.5-2.3,3.1-1.4.5-2.8.4-3.9-.6-.9-.8-1.3-1.9-1.3-3.1,0-1.6,0-3.1,0-4.7h0Z"/>
      <path class="cls-1" d="M80,54.1c-3-.1-5.2,2.6-5.1,5.2.1,3.3,2.7,5.2,5.1,5.2,2.9,0,5.2-2.4,5.2-5.3,0-2.9-2.3-5.1-5.2-5.1M92.9,59.1c.2,6.8-5.3,13-12.4,13.1-6.9.2-13.2-5-13.3-12.9,0-7.7,5.9-12.8,12.8-12.9,7.3-.1,13.3,6,12.9,12.7"/>
      <path class="cls-1" d="M188.8,54.1c-2.9-.3-5.2,2.5-5.3,5,0,2.4,1.8,5.3,5.1,5.4,2.2,0,5.2-2.1,5.2-5.1,0-2.8-2.3-5.2-5.1-5.2M188.6,72.2c-6.7.2-12.9-5.2-12.8-13,0-7.6,6-12.8,12.9-12.8,6.8,0,12.8,5.2,12.9,12.9.1,6.6-5.4,13.2-12.9,12.9"/>
      <path class="cls-1" d="M167.8,22.5c0,2.8,2.3,5.1,5,5.2,2.4,0,5.2-1.8,5.4-5.2.1-2.8-2.4-5.1-5.3-5.2-2.8-.1-5.2,2.7-5.1,5.2M160.1,22.5c-.2-7.5,6-13,12.9-12.9,6.6,0,12.8,4.8,12.8,12.9,0,7.1-5.6,12.8-12.7,12.9-7.4.1-13.3-5.9-13.1-12.9"/>
      <path class="cls-1" d="M47.1,63.6c0,1.5,0,3,0,4.5,0,2.2-1.6,3.7-3.8,3.8-2.5.1-4.4-1.1-4.5-3.3-.2-4-.5-8.1.3-12.1,1.4-6.7,8-10.6,14-10,3.4.3,6.3,1.5,8.8,3.9,1.9,1.9,3.2,4.3,3.4,7,.2,2,.1,4,.1,6,0,1.6,0,3.1,0,4.7-.1,2-1.8,3.7-3.7,3.8-2.1.2-3.9-1.1-4.4-3.1-.2-.6-.2-1.2-.2-1.8,0-2.5-.1-5.1,0-7.6.2-3-2.6-4.9-4.9-5-2.2,0-5.1,1.6-5.2,4.7,0,1.5,0,3,0,4.5h0Z"/>
      <path class="cls-1" d="M202.7,63.3c.1-2.1,0-4.3.4-6.3,1.2-6.9,7.8-11.2,14.2-10.4,2.7.3,5.2,1,7.3,2.7,2.9,2.3,4.6,5.2,4.8,8.9.2,3.2.1,6.4,0,9.7,0,2.1-1.6,3.8-3.4,4.1-2,.3-3.9-.7-4.6-2.6-.2-.6-.3-1.3-.3-2,0-2.6,0-5.2,0-7.8,0-2.5-1.2-4.1-3.4-4.9-2.1-.7-4.5,0-5.8,1.8-.6.8-.8,1.8-.8,2.8,0,2.9,0,5.7,0,8.6,0,1.7-.7,2.9-2.2,3.7-2.9,1.5-6.2-.4-6.2-3.6,0-1.5,0-3,0-4.5,0,0,0,0-.1,0"/>
      <path class="cls-1" d="M36.7,63.1c0,1.5,0,3,0,4.5,0,2.4-1.8,4.2-4,4.3-2.3,0-4.2-1.6-4.3-4-.1-2.8-.2-5.6,0-8.4.1-2.5-1.6-4.4-3.5-4.9-2.2-.7-4.7.2-5.9,2.1-.4.7-.6,1.7-.6,2.5,0,2.9,0,5.7,0,8.6,0,3.2-3.2,5.1-6.2,3.7-1.2-.5-2.1-1.5-2.1-2.9,0-3.8-.2-7.6.2-11.3.8-7,7.6-11.4,14.2-10.8,4.5.5,8,2.4,10.4,6.2,1.2,1.8,1.7,3.9,1.8,6.1,0,1.5,0,2.9,0,4.4"/>
      <path class="cls-1" d="M213.8,26.1c0,1.6,0,3.1,0,4.7,0,2.5-1.8,4.3-4.2,4.3-2.4,0-4.1-1.8-4.2-4.3,0-2.8,0-5.5,0-8.3,0-2.3-1.4-4.2-3.6-4.8-2.2-.6-4.8.3-5.8,2.3-.4.8-.6,1.9-.6,2.8,0,2.8,0,5.5,0,8.3,0,1.9-1,3.2-2.7,3.8-1.7.6-3.8,0-4.8-1.3-.5-.6-.8-1.5-.9-2.3,0-3.5,0-7.1.2-10.6.1-2.2,1-4.3,2.4-6,2.8-3.4,6.4-5.2,10.9-5.1,3.7,0,7,1.2,9.7,3.9,2.3,2.3,3.5,5.1,3.6,8.4,0,1.4,0,2.8,0,4.2"/>
      <path class="cls-1" d="M103.8,57.2c1.1-2.8,2.1-5.2,3.1-7.6.2-.4.3-.9.6-1.3,1-1.8,2.9-2.4,4.8-1.8,2.1.8,3.1,2.7,2.3,4.9-.9,2.4-1.9,4.8-2.9,7.2-1.4,3.4-2.7,6.7-4.1,10.1-.3.7-.7,1.4-1.2,2-1.4,1.8-4.4,1.5-5.4-.2-.3-.5-.7-1.1-.9-1.6-2.3-5.6-4.5-11.2-6.8-16.7-.1-.3-.2-.6-.3-.9-.7-2.1,0-3.8,2.1-4.7,2-.9,4.2-.2,5,1.7,1,2.1,1.7,4.2,2.6,6.3.3.7.6,1.4,1.1,2.4"/>
      <path class="cls-1" d="M83.9,25.4c0-1.8,0-3.5,0-5.3,0-6.3,5.9-10.9,11.9-10.6,2,.1,3.4,1.6,3.6,3.5.2,2-1,3.5-3,4-.5.1-.9.2-1.4.2-2,.3-3.1,1.6-3.1,3.6,0,3.1,0,6.2,0,9.4,0,.5,0,1,0,1.6-.2,3.1-3.9,4.5-6.5,2.7-1-.7-1.4-1.7-1.4-3,0-2,0-4.1,0-6.1"/>
      <path class="cls-1" d="M174.3,53.9c0,2.6,0,5.2,0,7.8,0,2.1,0,4.1-.1,6.2,0,2.2-1.7,3.9-3.8,4-2.1,0-3.8-1.4-4.2-3.6,0-.4,0-.7,0-1.1,0-5.4,0-10.8,0-16.2,0-2.1,1-3.7,2.7-4.3,2.4-.9,5,.7,5.3,3.3.1,1.3,0,2.6,0,3.9h.2"/>
      <path class="cls-1" d="M8,59.3c0,2.8,0,5.6,0,8.4,0,1.2-.3,2.3-1.2,3.1-1.1,1.1-2.5,1.5-4,1-1.6-.6-2.5-1.8-2.8-3.5,0-.4,0-.7,0-1.1,0-5.4,0-10.8,0-16.2,0-1.1.2-2,.9-2.9,1.1-1.4,2.8-1.9,4.5-1.4,1.6.5,2.6,1.9,2.7,3.7,0,3,0,5.9,0,8.9h0Z"/>
      <path class="cls-1" d="M150.4,22.3c0-2.8,0-5.5,0-8.3,0-1.1.2-2.2,1.1-3,1.1-1.2,2.5-1.7,4.1-1.2,1.6.5,2.5,1.6,2.9,3.2,0,.3,0,.6,0,.9,0,5.6,0,11.2,0,16.8,0,2.9-2.4,4.9-5,4.2-1.8-.5-3-2-3-4.1,0-2.9,0-5.7,0-8.6"/>
      <path class="cls-1" d="M170.1,36.8c2.2,0,4,1.8,4,4,0,2.1-1.7,4.1-4,4.1-2.1,0-4.1-1.9-4.1-4.1s1.9-4.1,4-4.1"/>
      <path class="cls-1" d="M4.1,36.8c2.2,0,4,1.9,3.9,4.2,0,2.1-1.9,4-4,4-2.3,0-4.1-1.9-4-4.3,0-2.1,2-3.9,4.1-3.9"/>
      <path class="cls-1" d="M150.4,4.1C150.4,1.8,152.2,0,154.4,0c2.1,0,4,1.8,4,4,0,2.2-1.8,4.1-4,4.1-2.3,0-4-1.8-4.1-4"/>
    </g>
  </g>
</svg>