<?xml version="1.0" encoding="utf-8"?>
<!-- Generator: Adobe Illustrator 29.3.1, SVG Export Plug-In . SVG Version: 9.03 Build 55982)  -->
<svg version="1.1" id="Layer_1" xmlns="http://www.w3.org/2000/svg" xmlns:xlink="http://www.w3.org/1999/xlink" x="0px" y="0px"
	 viewBox="0 0 229.6 72.2" style="enable-background:new 0 0 229.6 72.2;" xml:space="preserve">
<style type="text/css">
	.st0{fill:#FFFFFF;}
</style>
<g>
	<g id="Layer_1_00000096762689413965308290000003512358536346394753_">
		<path class="st0" d="M8.7,11.3c0.5-0.2,0.7-0.3,1-0.5c4-1.9,7.9-1.5,11.6,0.7c4.1,2.6,6.4,6.2,6.3,11.3c0,2.9,0,5.8,0,8.7
			c-0.1,3.3,2.3,5.3,5.2,5.3c0.6,0,1.1,0,1.7,0c2.1,0.2,3.4,1.7,3.5,3.7c0,1.9-1.2,3.5-3.1,3.9c-6.6,1.6-14.3-3.3-15.7-9.9
			c-0.2-0.9-0.3-1.7-0.3-2.6c0-3.2,0-6.3,0-9.5c0-2-1.1-4.2-3.8-4.9c-2.3-0.6-5,0.4-6.1,2.4c-0.4,0.7-0.5,1.6-0.5,2.4
			c0,2.8,0,5.5,0,8.3c0,1.9-0.7,3.3-2.4,4S2.7,35.1,1.2,34C0.3,33.4,0,32.3,0,31c0-7.1,0-14.2,0-21.4S0,6,0,4.1c0-1.8,1-3,2.7-3.6
			c1.8-0.6,3.9,0,5,1.2c0.6,0.8,0.9,1.6,0.9,2.6c0,2.1,0,4.2,0,6.2C8.6,10.7,8.6,10.9,8.7,11.3"/>
		<path class="st0" d="M46.4,34.1c-0.9,0.2-1.8,0.4-2.7,0.4c-4.8,0.5-8.7-1.3-11.9-4.9c-1.4-1.6-2-3.7-2-5.8c0-3.4,0-6.9,0-10.3
			c0-2.8,2.7-4.7,5.3-3.8c1.7,0.6,2.7,1.9,2.7,3.8c0,2.5,0,5,0,7.5c0,0.6,0,1.2,0,1.9c0.1,2.5,2,4.4,4.4,4.4c2.3,0,4.3-1.9,4.3-4.4
			c0-3,0-6,0-9c0-1.5,0.6-2.6,1.7-3.5c1.2-0.9,2.6-1,4-0.4c1.4,0.7,2.3,1.8,2.3,3.4c0,2.5,0,5,0,7.5c0,4.4-0.1,8.7,0,13.1
			c0.2,5.8-4.9,10.8-10.7,10.9c-0.5,0-1,0-1.6,0c-1.9-0.1-3.3-1.5-3.5-3.3c-0.2-1.6,0.9-3.3,2.6-3.8c0.6-0.2,1.3-0.2,2-0.3
			c1.9-0.2,3-1.5,2.9-3.3"/>
		<path class="st0" d="M74.3,13.4c0-3,0-6,0-9c0-2.3,2.1-4.8,5.2-3.9c1.4,0.4,2.4,1.6,2.5,3c0,0.7,0,1.4,0,2c0,4.4,0,8.8,0,13.3
			c0,0.5,0,0.9,0,1.4c0.5,4.8-1,8.9-4.7,12.1c-2.9,2.5-6.3,3.2-10,2.9c-4.1-0.4-7.2-2.3-9.4-5.6c-2.8-4.3-3-8.8-0.6-13.3
			S63.8,9.6,69,9.6c1.7,0,3.2,1.1,3.7,2.6c0.5,1.6,0,3.5-1.5,4.4c-0.7,0.4-1.5,0.6-2.3,0.6c-1.8,0.1-3.1,0.8-4.2,2.2
			c-2.1,2.9-0.6,7.1,2.9,7.9c3.2,0.8,6.9-1.8,6.7-5.2C74.1,19.2,74.3,16.3,74.3,13.4C74.3,13.4,74.3,13.4,74.3,13.4z"/>
		<path class="st0" d="M80,54.1c-3-0.1-5.2,2.6-5.1,5.2c0.1,3.3,2.7,5.2,5.1,5.2c2.9,0,5.2-2.4,5.2-5.3C85.2,56.3,82.9,54.1,80,54.1
			 M92.9,59.1c0.2,6.8-5.3,13-12.4,13.1c-6.9,0.2-13.2-5-13.3-12.9c0-7.7,5.9-12.8,12.8-12.9C87.3,46.3,93.3,52.4,92.9,59.1"/>
		<path class="st0" d="M47.1,63.6c0,1.5,0,3,0,4.5c0,2.2-1.6,3.7-3.8,3.8c-2.5,0.1-4.4-1.1-4.5-3.3c-0.2-4-0.5-8.1,0.3-12.1
			c1.4-6.7,8-10.6,14-10c3.4,0.3,6.3,1.5,8.8,3.9c1.9,1.9,3.2,4.3,3.4,7c0.2,2,0.1,4,0.1,6c0,1.6,0,3.1,0,4.7
			c-0.1,2-1.8,3.7-3.7,3.8c-2.1,0.2-3.9-1.1-4.4-3.1c-0.2-0.6-0.2-1.2-0.2-1.8c0-2.5-0.1-5.1,0-7.6c0.2-3-2.6-4.9-4.9-5
			c-2.2,0-5.1,1.6-5.2,4.7c0,1.5,0,3,0,4.5l0,0L47.1,63.6z"/>
		<path class="st0" d="M36.7,63.1c0,1.5,0,3,0,4.5c0,2.4-1.8,4.2-4,4.3c-2.3,0-4.2-1.6-4.3-4c-0.1-2.8-0.2-5.6,0-8.4
			c0.1-2.5-1.6-4.4-3.5-4.9c-2.2-0.7-4.7,0.2-5.9,2.1c-0.4,0.7-0.6,1.7-0.6,2.5c0,2.9,0,5.7,0,8.6c0,3.2-3.2,5.1-6.2,3.7
			C11,71,10.1,70,10.1,68.6c0-3.8-0.2-7.6,0.2-11.3c0.8-7,7.6-11.4,14.2-10.8c4.5,0.5,8,2.4,10.4,6.2c1.2,1.8,1.7,3.9,1.8,6.1
			C36.7,60.3,36.7,61.7,36.7,63.1"/>
		<path class="st0" d="M103.8,57.2c1.1-2.8,2.1-5.2,3.1-7.6c0.2-0.4,0.3-0.9,0.6-1.3c1-1.8,2.9-2.4,4.8-1.8c2.1,0.8,3.1,2.7,2.3,4.9
			c-0.9,2.4-1.9,4.8-2.9,7.2c-1.4,3.4-2.7,6.7-4.1,10.1c-0.3,0.7-0.7,1.4-1.2,2c-1.4,1.8-4.4,1.5-5.4-0.2c-0.3-0.5-0.7-1.1-0.9-1.6
			c-2.3-5.6-4.5-11.2-6.8-16.7c-0.1-0.3-0.2-0.6-0.3-0.9c-0.7-2.1,0-3.8,2.1-4.7c2-0.9,4.2-0.2,5,1.7c1,2.1,1.7,4.2,2.6,6.3
			c0.3,0.7,0.6,1.4,1.1,2.4"/>
		<path class="st0" d="M83.9,25.4c0-1.8,0-3.5,0-5.3c0-6.3,5.9-10.9,11.9-10.6c2,0.1,3.4,1.6,3.6,3.5c0.2,2-1,3.5-3,4
			c-0.5,0.1-0.9,0.2-1.4,0.2c-2,0.3-3.1,1.6-3.1,3.6c0,3.1,0,6.2,0,9.4c0,0.5,0,1,0,1.6c-0.2,3.1-3.9,4.5-6.5,2.7
			c-1-0.7-1.4-1.7-1.4-3C84,29.5,84,27.4,83.9,25.4"/>
		<path class="st0" d="M8,59.3c0,2.8,0,5.6,0,8.4c0,1.2-0.3,2.3-1.2,3.1c-1.1,1.1-2.5,1.5-4,1C1.2,71.2,0.3,70,0,68.3
			c0-0.4,0-0.7,0-1.1C0,61.8,0,56.4,0,51c0-1.1,0.2-2,0.9-2.9c1.1-1.4,2.8-1.9,4.5-1.4C7,47.2,8,48.6,8.1,50.4c0,3,0,5.9,0,8.9l0,0
			L8,59.3z"/>
		<path class="st0" d="M4.1,36.8c2.2,0,4,1.9,3.9,4.2c0,2.1-1.9,4-4,4c-2.3,0-4.1-1.9-4-4.3C0,38.6,2,36.8,4.1,36.8"/>
	</g>
</g>
</svg>
