<?xml version="1.0" encoding="utf-8"?>
<!-- Generator: Adobe Illustrator 29.3.1, SVG Export Plug-In . SVG Version: 9.03 Build 55982)  -->
<svg version="1.1" id="Layer_1" xmlns="http://www.w3.org/2000/svg" xmlns:xlink="http://www.w3.org/1999/xlink" x="0px" y="0px"
	 viewBox="0 0 229.6 72.2" style="enable-background:new 0 0 229.6 72.2;" xml:space="preserve">
<style type="text/css">
	.st0{fill:#FFFFFF;}
</style>
<g>
	<g id="Layer_1_00000057112250960163341570000011043301649819318416_">
		<path class="st0" d="M8.7,11.3c0.5-0.2,0.7-0.3,1-0.5c4-1.9,7.9-1.5,11.6,0.7c4.1,2.6,6.4,6.2,6.3,11.3c0,2.9,0,5.8,0,8.7
			c-0.1,3.3,2.3,5.3,5.2,5.3c0.6,0,1.1,0,1.7,0c2.1,0.2,3.4,1.7,3.5,3.7c0,1.9-1.2,3.5-3.1,3.9c-6.6,1.6-14.3-3.3-15.7-9.9
			c-0.2-0.9-0.3-1.7-0.3-2.6c0-3.2,0-6.3,0-9.5c0-2-1.1-4.2-3.8-4.9c-2.3-0.6-5,0.4-6.1,2.4c-0.4,0.7-0.5,1.6-0.5,2.4
			c0,2.8,0,5.5,0,8.3c0,1.9-0.7,3.3-2.4,4S2.7,35.1,1.2,34C0.3,33.4,0,32.3,0,31c0-7.1,0-14.2,0-21.4S0,6,0,4.1c0-1.8,1-3,2.7-3.6
			c1.8-0.6,3.9,0,5,1.2c0.6,0.8,0.9,1.6,0.9,2.6c0,2.1,0,4.2,0,6.2C8.6,10.7,8.6,10.9,8.7,11.3"/>
		<path class="st0" d="M38,22.3c0,2.8,0,5.6,0,8.4c0,1.2-0.3,2.3-1.2,3.1c-1.1,1.1-2.5,1.5-4,1c-1.6-0.6-2.5-1.8-2.8-3.5
			c0-0.4,0-0.7,0-1.1c0-5.4,0-10.8,0-16.2c0-1.1,0.2-2,0.9-2.9c1.1-1.4,2.8-1.9,4.5-1.4c1.6,0.5,2.6,1.9,2.7,3.7
			C38.1,16.4,38.1,19.3,38,22.3L38,22.3L38,22.3z"/>
		<path class="st0" d="M34.1-0.2c2.2,0,4,1.9,3.9,4.2c0,2.1-1.9,4-4,4c-2.3,0-4.1-1.9-4-4.3C30,1.6,32-0.2,34.1-0.2"/>
	</g>
</g>
</svg>
