<?xml version="1.0" encoding="UTF-8"?>
<svg id="Layer_1" xmlns="http://www.w3.org/2000/svg" version="1.1" viewBox="0 0 1536 1024">
  <!-- Generator: Adobe Illustrator 29.4.0, SVG Export Plug-In . SVG Version: 2.1.0 Build 152)  -->
  <defs>
    <style>
      .st0 {
        fill: #f39e11;
      }

      .st1 {
        fill: #f6b122;
      }

      .st2 {
        fill: #f4a012;
      }

      .st3 {
        fill: #f29c0d;
      }

      .st4 {
        fill: #f28e0d;
      }

      .st5 {
        fill: #f18300;
      }

      .st6 {
        fill: #f39d10;
      }

      .st7 {
        fill: #f6af1f;
      }

      .st8 {
        fill: #fffde7;
      }

      .st9 {
        fill: #f29c0e;
      }

      .st10 {
        fill: #54c16e;
      }

      .st11 {
        fill: #f39e10;
      }

      .st12 {
        fill: #f39d0f;
      }

      .st13 {
        fill: #f6b020;
      }

      .st14 {
        fill: #3bb759;
      }

      .st15 {
        fill: #f6a40f;
      }

      .st16 {
        fill: #f29e0f;
      }

      .st17 {
        fill: #f29d0e;
      }

      .st18 {
        fill: #f6a916;
      }

      .st19 {
        fill: #95df9f;
      }
    </style>
  </defs>
  <rect class="st8" x="-20.5" y="-31.7" width="1577.1" height="1071.7"/>
  <path class="st12" d="M1362.1,430c6.1-3.9,12.8-7.6,16.6-14.1,5.4,1.5,30.6,10.3,34.2,8,.9-13.5,20.3-34.3,4.8-44.1s-41.4-16.1-58.6-26.4c-11.1-10.5,4.3-18.8,13.9-10.4,5-9.9,8.5-29,21.8-29.8,4.5-.2,26.4,9.3,31.6,11.9,22.7,11.3,11.2,25,4.8,43.2,16,14.5,6.2,27.3,1.9,43.2-4,15-5.9,30.7-11.1,45.4,12.4,4.1,13.3,15.9,15.7,26.8,4.6,21.2,10.2,48.3,9.4,69.7-.3,8-2.4,16.7-1.8,24.8,1.5,6.4,19,22.3,22.7,29.3,4,7.8-2.7,15.2-10.2,11.2s-13-15-15.6-18.4c-3.9-5.2-11.8-14.1-12.8-20.2-1.7-10.1,3-25.4,2.7-36.8-.6-21.7-9-45.8-11.5-67.6-4.6-7.4-16.5-3.4-19,4.1-3.4,9.8,0,18,.5,27.5.8,15.1-4.6,18.3-9.8,31.2s-10.4,29.9-8.2,41.7c.9,4.8,9.1,9.1,2,15.1s-6.4,2.8-9.6.5-1.7-3.6-3.5-4l-10.1,27.4c4.2,3,8.7,6,12.6,9.5,3.3,3,16.7,17,18,20.1s-.3,8.7-3.7,10.2c-8.5,3.7-10.7-4.5-15.2-9.3-5.1-5.4-19.8-18.7-26.5-20.6s-5.6.8-8.5.7c-10.7-.5-34.8-10.9-45.7-15.3-19.7-8-40.2-14.6-31-41.3-13.9-8.7-12.5-30,3.2-35.5-6.1-9.6-3.4-26.5,9-29-4.9-10.3-1.3-25.6,11-28-5-14.5,4.5-28.6,20-28-5.1-10.6,0-30.4,10.5-36,8-4.3,8.3,3.2,14.1,8,10.7,8.9,18.1,7.1,30.5,5,.6,2.7-1.3,2-3,2.5-8,2.4-15.9,1.3-23.4-2.6s-2.9-3-5.1-3.9c-6.7,4.5-10,9.3-10.5,17.6-1,16.1,4.7,11.3,13.5,18.5,11.1,9.1,13,31.3-2.4,36,2.5,11.8,1.3,23.5-10.9,28.5,3.3,13.9.4,25.4-15.1,27.5,3.2,18.7-9.1,31.3-28,26-.7,7.3.1,12,7.1,15.4,8.5,4.1,21.6,7.6,29.7,10.5s31.4,16.1,38.1,3.5c9.5-23.8,16.1-48.7,25.4-72.6s10-17.7,9.8-26.3c-.2-16.6-4.6-30.2,6.9-45,3.2-4.1,9.6-7.3,11.9-11.1s3.1-10.4,5.2-14.8c-9.9-1.3-19.7-3.4-29-7-2.6-1-6-4.1-8.6-4.5s-7.2,1.4-10.4,2ZM1418.1,363c0-5.3,9.3-17.6,6.5-22-.7-1.2-23-11-25.5-11.6s-1.7-.7-3,0c-2.4,1.3-8.3,17-10,20.5l32,13ZM1302.8,468.2c-4.7,1.4-4.7,8-1.2,10.8s17.7,7.6,19.3,7.8c6.3.8,8.3-8.1,3.2-12.3s-17.2-7.5-21.2-6.3ZM1291.9,494.2c-5.1,1-5.1,8.4-1.8,11.4s20.5,8.8,22.5,8.5c3.6-.6,6.3-8.3,2.6-11.6s-20.2-8.9-23.3-8.2ZM1304.9,529.3c-.9-.8-21.2-8.2-22.4-8.2-5.9-.2-7.2,8.6-2.9,12,3.1,2.5,20,7.9,23.8,6.8s3.5-8.8,1.4-10.5ZM1272.8,550.2c-3.6,1-4.5,5.8-3.5,9.1,1.7,5.6,21.8,12,21.8.2,0-6.7-13.1-10.8-18.3-9.3Z"/>
  <path class="st13" d="M1362.1,430c3.2-.6,7.8-2.4,10.4-2s6,3.5,8.6,4.5c9.3,3.6,19.1,5.7,29,7-2,4.4-2.8,10.8-5.2,14.8s-8.6,7-11.9,11.1c-11.6,14.8-7.2,28.4-6.9,45,.1,8.6-6.7,18.2-9.8,26.3-9.2,23.9-15.9,48.8-25.4,72.6-6.7,12.6-28.2,0-38.1-3.5s-21.2-6.4-29.7-10.5c-7-3.4-7.8-8.1-7.1-15.4,18.9,5.3,31.1-7.3,28-26,15.6-2,18.4-13.6,15.1-27.5,12.2-5,13.5-16.7,10.9-28.5,15.4-4.7,13.5-26.9,2.4-36-8.8-7.2-14.5-2.4-13.5-18.5.5-8.3,3.8-13.1,10.5-17.6,2.3.9,2.4,2.5,5.1,3.9,7.5,3.9,15.3,5,23.4,2.6s3.6.2,3-2.5c.3,0,.7,0,1,0Z"/>
  <path class="st11" d="M1352.9,367.3c3.2-.4,9.1-1.3,11.1,1.3,3.3,4.2,6.7,16.5,7.1,21.9,1.2,15.7-6.6,31.1-24.4,28.4-9.5-1.5-28.3-20-26.5-30.4s24.1-20.1,32.7-21.3Z"/>
  <path class="st6" d="M1280.8,311.2c9.3-2.1,21.7,8.4,27.3,15.3s15.5,21.9,9.5,30.5c-4.5-4.5-8.8-9.2-14.2-12.8-7.9-5.3-27.2-11.2-29.1-20.9-.9-4.8,1.4-10.9,6.5-12Z"/>
  <path class="st0" d="M1338.8,303.4c2.8,2.8,2.9,7.3,2.1,10.9s-10.5,25.8-11.5,27.4,0,1.8-2.2,1.3c-4.1-7.9-7.8-38.3,1.9-41.5,3.4-1.1,7.2-.6,9.7,1.9Z"/>
  <path class="st0" d="M1308.1,369h-24.5c-5.4,0-9.9-15.2,1.9-16.1,9-.7,23.3,5.4,22.6,16.1Z"/>
  <path class="st8" d="M1418.1,363l-32-13c1.7-3.6,7.6-19.3,10-20.5s1.8-.3,3,0c2.5.6,24.8,10.4,25.5,11.6,2.8,4.5-6.5,16.7-6.5,22Z"/>
  <path class="st8" d="M1291.9,494.2c3.1-.6,20.9,6.1,23.3,8.2,3.7,3.3,1,11.1-2.6,11.6s-20.7-6.8-22.5-8.5c-3.3-3-3.3-10.4,1.8-11.4Z"/>
  <path class="st8" d="M1304.9,529.3c2,1.8,2.2,9.5-1.4,10.5s-20.7-4.2-23.8-6.8c-4.3-3.5-3-12.3,2.9-12s21.5,7.5,22.4,8.2Z"/>
  <path class="st8" d="M1302.8,468.2c4-1.2,18,3.7,21.2,6.3,5.1,4.2,3.1,13.1-3.2,12.3s-18.1-6.9-19.3-7.8c-3.5-2.8-3.4-9.5,1.2-10.8Z"/>
  <path class="st8" d="M1272.8,550.2c5.2-1.5,18.4,2.6,18.3,9.3,0,11.7-20.2,5.4-21.8-.2-1-3.3,0-8.1,3.5-9.1Z"/>
  <path class="st9" d="M1126.1,428c-.3,0-.6.8-1,1-1.1-.1-13.9,5-16,6l-52-77c-12.1,22.9-28,43.9-41.4,66.1-18.9,31.1-38.9,66.3-32.3,104.1,13.4,76.3,126.3,82.2,147.7,8.8,7.1-7.9,16.6-24,20-34,3.5,33.8-8.4,66.1-36.3,86.2-43,31.1-111.4,19.6-137.9-27.5-40.4-71.7,25.5-146.3,60.6-204.8,3.8-6.3,11.3-23.8,16.1-26.9s8.7-1.2,11.9,3.1c6.1,8.2,12.7,23.5,18.8,33.2,13.2,21,27.9,41.2,41.8,61.7Z"/>
  <path class="st8" d="M1131.1,537c-21.4,73.4-134.4,67.5-147.7-8.8-6.6-37.9,13.5-73.1,32.3-104.1,13.5-22.2,29.3-43.2,41.4-66.1l52,77c-27.5,13.4-49.2,40.5-54,71l-7-10.5c-6-6.5-14.5-11.8-23-14.5s-5.9-1.9-10-2-1.4,0-2,0-1.6-.4-2.1.6c-6.1,6.6-1.1,22.9,2.1,30.4,6.9,16.2,16.9,25.6,32,34,3,1.7,6.5,3.8,10,4l2.5,23c.9,1.5,10.4-.6,12.5-1,22.6-4.4,45.5-15.8,61-33Z"/>
  <path class="st10" d="M1125.1,429c3.3.4-.4,1.3,5.5,0s12-2.8,18.4-2c4.3,15.4,5.9,31.3,5.1,47.4s-3.2,13.8-1,19.5c-.5,2.6-1.2,6.7-2,9-3.4,10-12.9,26.1-20,34-15.5,17.2-38.4,28.6-61,33-1.9-3-10,.6-11,0l-2-21.3c-.3-1.1-1.9-.5-2-.7s.4-1.4-.7-2c-2.1-1.2-6.6-.6-8.8-3l-.5,1c-15.1-8.4-25.1-17.8-32-34,1.9-.9.4-3.2,0-4.5-2.1-7.1-4.8-15.8-2.2-23.1s2.6-1.3,2.2-3.4c.6,0,1.4,0,2,0v2c3.3-.9,7.7,2.3,10,0,8.4,2.8,17,8,23,14.5l7,10.5c4.8-30.5,26.5-57.6,54-71s14.9-6.1,16-6ZM1082.1,546c38.9-10.9,56.8-46.7,55-85.5-.1-3-.6-9.3-1-12s-.4-2.1-1.6-2.4c-2-.6-14.7,5-17.4,6.4-33.6,17.1-48,49.7-47,86.5l10.8-17.7c5.5-6.7,10.3-14.4,16.3-20.7,3-3.2,7.2-8.5,12-8-7.1,18.7-23,33.3-27,53.5Z"/>
  <path class="st14" d="M1126.1,428c4.7-1.4,17-3.6,21.5-3.1l1.3.3c3.2,5.7,5.2,12.9,6.1,19.4,2.1,15.5,1.4,34.1-1.9,49.4-2.2-5.7.8-13.4,1-19.5.8-16.1-.8-32-5.1-47.4-6.4-.9-12.2.6-18.4,2s-2.3.4-5.5,0c.4-.2.7-.9,1-1Z"/>
  <path class="st19" d="M1082.1,546c4-20.1,19.9-34.8,27-53.5-4.8-.4-9,4.8-12,8-6,6.3-10.7,14-16.3,20.7l-10.8,17.7c-1-36.8,13.4-69.4,47-86.5s15.4-7,17.4-6.4,1.4,1.4,1.6,2.4c.5,2.6.9,9,1,12,1.8,38.9-16.1,74.7-55,85.5Z"/>
  <path class="st14" d="M1045.1,544l.5-1c2.1,2.4,6.7,1.8,8.8,3s.6,1.8.7,2,1.7-.5,2,.7l2,21.3c1,.7,9-2.9,11,0-2.1.4-11.7,2.5-12.5,1l-2.5-23c-3.5-.2-7-2.3-10-4Z"/>
  <path class="st14" d="M1013.1,479c.4,2.1-1.6,1.8-2.2,3.4-2.6,7.3,0,16,2.2,23.1s1.9,3.6,0,4.5c-3.2-7.4-8.2-23.8-2.1-30.4.5-1,1.4-.5,2.1-.6Z"/>
  <path class="st14" d="M1025.1,481c-2.3,2.3-6.7-.9-10,0v-2c4.1,0,6.3.8,10,2Z"/>
  <path class="st2" d="M843.1,375c.4.3.7.7,1,1,0,2.9,2.6,3.6,4,5,7.2,7.4,13.1,21.2,14,31.5,3.6,40.8-2.7,86.7,0,128-2.8,14,.4,29.5-1,43.5-2.7-.6-1.9,1.4-2.5,3-1.6,4.9-3.2,8.5-5.5,13-1.2,1.2-1.8,1.8-3,3-6,2.7-11.8,6.3-18.5,7-23.9,2.4-56.6.5-81.5,1-.7,0-1.3,0-2,0,1.2-2.1-3.9-3-5.6-2.9s-2.2,1.8-2.4,1.9c-65.8,27.1-110-24.3-74.8-86.3s29.9-48.9,57.3-27.7c3.1.3.5-1.1.5-1.5v-85c0-6.5,11.4-29.6,17-32.5s.5,1.1.8.8c1.3-.9,4.2-5.9,5.6-6.9,3.8-2.6,6.7,1.4,10.5,2.2l-.9,4.9c-.3.3-.7.7-1,1s-1.3-.3-1.8.2c-.8.8-1.2,3.7-2.2,4.8-.3.4-.7.6-1,1-.7,1-1.3,2-2,3-3.3,5-7.9,18.1-10,21s-1.4-.3-1.8.2c-1.4,1.6.6,37.9-.2,43.4l1,1.4h6.4c0,.1,1.5,1.6,1.5,1.6.5,11.7-1,23.2-.9,34.9s.1,22.7,1.1,27.9,9.6,14.7,11.8,19.2c8.1,16,11.2,34.6,8.1,52.4h65.5c1.2,0,6.4-3.3,7.4-4.6,5.2-6.9,2.2-14.7,2.1-21.8-.2-22.8.3-45.7,0-68.5h8c1.4-.1.9-1.5,1-2.4,2.3-18.9.9-56.1,0-76.1-.1-2.5.7-3.3-2-1.5-.9-12.9-6.7-20.9-14-31,3.1-1.6,0-1.8-.6-2.4-1.6-1.9-8.8-9.9-5.5-12.2s9.3.4,10.4.7c1.7.6,1.9,3,3.1,3.9s2.3.8,2.5.9ZM702.9,502.2c-6,.2-12.9,6.5-13.7,12.4-3.1,21.7,14.1,50.9,30.4,64.4,12,9.9,33.8,19.6,32.3-5.3-1.3-22.6-21-57-41-68s-6.6-3.5-8.1-3.4ZM725.1,599c-21.3-8.8-33.8-28.2-43.2-48.3s-5.7-15.5-6.8-14.7c-6.7,14.1-11.3,28.8-5.8,44.3s27.2,23.1,46.3,21.7l9.5-3Z"/>
  <path class="st3" d="M850.1,327.5c-.9-8.1-6.6-13.4-14.6-14.4-10-1.2-22.4,0-32.4.9h0c-.4,0-.8.2-1.3.2s-.7,0-1-.1c-.2,0-.4,0-.5,0-.3,0-.5,0-.8,0s-.3,0-.4,0c-.1,0-.2,0-.3,0-.3,0-.5,0-.8,0s-.5,0-.8,0c0,0-.2,0-.2,0,0,0-.1,0-.2,0-.1,0-.3,0-.4,0-.3,0-.6,0-.9,0s-.6,0-.9,0c-.2,0-.5,0-.7,0-.1,0-.2,0-.4,0-.2,0-.3,0-.5,0s-.4,0-.6,0c-.2,0-.4,0-.6,0s-.3,0-.5,0c-.2,0-.5,0-.7,0s-.6,0-.9,0c-.1,0-.2,0-.3,0-.2,0-.3,0-.5,0s-.1,0-.2,0c0,0,0,0-.1,0s-.1,0-.2,0c0,0,0,0,0,0-.1,0-.3,0-.4,0,0,0-.1,0-.2,0-.2,0-.4,0-.7,0-15.9.2-45.2-7.2-52.3,12-2.2,6.1-2.2,22.6-1.5,29.5.7,7,4.2,13.7,12,13.5.6,3.7-4,4.4-5,8,0,0,.5,1.1.8.8,1.3-.9,4.2-5.9,5.6-6.9,3.8-2.6,6.7,1.4,10.5,2.2l-.9,4.9c2-2,6.4-7.6,8.5-8l57,1c2.9.6,9.5,10.2,11.5,13,3.1-1.6,0-1.8-.6-2.4-1.6-1.9-8.8-9.9-5.5-12.2.8-.5,9.3.4,10.4.7,1.7.6,1.9,3,3.1,3.9.9.7,2.3.8,2.5.9l-3-6c5.8.6,9.4-4,10-9.5.8-7,.7-24.9,0-32ZM834.1,355h-84v-27h84v27Z"/>
  <path class="st4" d="M850.1,603c-6.4,5.9-12.7,8.2-21.5,9-21.4,1.8-51.2.7-73,0-1.9,0-3.8,0-5.4-1,24.8-.5,57.6,1.4,81.5-1,6.7-.7,12.5-4.3,18.5-7Z"/>
  <path class="st4" d="M861.1,584c-.7,6.8-3.5,11.2-8,16,2.3-4.5,4-8.1,5.5-13s-.2-3.6,2.5-3Z"/>
  <path class="st4" d="M740.1,610c.2,0,.5-1.9,2.4-1.9s6.8.8,5.6,2.9c-2.5,0-5.3-1.5-8-1Z"/>
  <path class="st3" d="M848.1,381c-1.4-1.4-4.1-2.1-4-5,1.5,1.4,2.8,3.4,4,5Z"/>
  <path class="st8" d="M756.1,378c2-2,6.4-7.6,8.5-8l57,1c2.9.6,9.5,10.2,11.5,13,7.3,10.1,13.1,18.1,14,31s-.1,2,0,3,.5.9,1,1v76h-8c.2,22.8-.3,45.7,0,68.5,0,7.1,3.1,14.9-2.1,21.8s-6.1,4.6-7.4,4.6h-65.5c3-17.7,0-36.3-8.1-52.4-2.3-4.5-11.2-15.9-11.8-19.2-1-5.2-1-21.6-1.1-27.9,0-11.7,1.4-23.2.9-34.9l-1.5-1.5h-6.4c1.3-12.8-1.8-28.9,0-41.1.5-.1.9-.5,1-1,.2-.9-.1-2,0-3,2.1-2.9,6.7-16,10-21,1.4-.4,2-1.5,2-3,.3-.4.7-.6,1-1,1.3-1.6,4-2.9,4-5,.3-.3.7-.7,1-1Z"/>
  <path class="st1" d="M702.9,502.2c1.5,0,6.5,2.5,8.1,3.4,20,11,39.6,45.5,41,68,1.5,25-20.3,15.3-32.3,5.3-16.3-13.5-33.5-42.7-30.4-64.4s7.7-12.2,13.7-12.4Z"/>
  <path class="st8" d="M725.1,599l-9.5,3c-19,1.4-39-1.5-46.3-21.7s-.9-30.2,5.8-44.3c1.1-.8,6.1,13.2,6.8,14.7,9.4,20.1,21.9,39.5,43.2,48.3Z"/>
  <path class="st5" d="M848.1,495v-76l-1-1c-.1-1,0-2,0-3,2.7-1.8,1.9-1,2,1.5,1,20,2.4,57.2,0,76.1-.1,1,.3,2.3-1,2.4Z"/>
  <path class="st5" d="M738.1,409c-.1,1,.2,2.1,0,3-.5.1-.9.5-1,1-1.8,12.2,1.3,28.4,0,41l-1-1.4c.9-5.5-1.2-41.7.2-43.4s1.7,0,1.8-.2Z"/>
  <path class="st3" d="M755.1,379c0,2.1-2.7,3.4-4,5,1-1.1,1.4-4.1,2.2-4.8s1.7,0,1.8-.2Z"/>
  <path class="st3" d="M748.1,388c.7-1,1.3-2,2-3,0,1.5-.6,2.6-2,3Z"/>
  <rect class="st8" x="750.1" y="328" width="84" height="27"/>
  <path class="st2" d="M737.1,413c0-.5.5-.9,1-1,0,.5-.5.9-1,1Z"/>
  <path class="st2" d="M848.1,419c-.5-.1-.9-.5-1-1l1,1Z"/>
  <path class="st17" d="M422.9,361.3c26.3-2.7,62.5,6.3,86.6,16.8,24.1,10.5,73.9,39.4,69.6,70.3-1.2,8.8-13.5,42.5-17.7,51.3-4.6,9.5-10.4,13.9-20.9,16.1-40,8.3-105.9-18.4-138.2-42.3-17.2-12.8-33.1-27.4-24.8-50.7s14.7-41.7,20.3-49.7,16.2-10.8,25.2-11.8ZM431.9,376.3c-20.1.7-29.2,8.4-14.8,26.2,21.5,26.4,98.1,53.8,131.5,50.5,15.8-1.6,19.6-11.3,9.5-23.5-23.9-28.9-89.2-54.4-126.2-53.2ZM404.1,454l11.9-31.4-15.9-15.6c-1.6,8.1-7,15.4-9.5,23s-1.6,8.9,2.5,14.5,9.8,10.4,11,9.5ZM453.1,483l11.9-32.5-36.4-19.5-13.4,32.4c3.8,3.5,36.3,21,37.9,19.6ZM516.1,465c-12.9-1.4-25.3-5.5-37.4-9.9l-13.6,33.9c5.4,1.1,36.1,12.3,38.9,9.9l12.1-33.9ZM556.1,468h-24.5l-13.4,32.6c-.4,1.9,0,1.2,1.4,1.4,5.6.7,21-.9,25.1-4.9,5.5-5.5,8.1-21.7,11.4-29.1Z"/>
  <path class="st8" d="M431.9,376.3c37-1.2,102.4,24.3,126.2,53.2s6.3,22-9.5,23.5c-33.4,3.3-110-24.1-131.5-50.5-14.4-17.7-5.3-25.5,14.8-26.2Z"/>
  <path class="st8" d="M453.1,483c-1.6,1.4-34.1-16.1-37.9-19.6l13.4-32.4,36.4,19.5-11.9,32.5Z"/>
  <path class="st8" d="M516.1,465l-12.1,33.9c-2.8,2.4-33.5-8.8-38.9-9.9l13.6-33.9c12.1,4.4,24.5,8.5,37.4,9.9Z"/>
  <path class="st8" d="M556.1,468c-3.4,7.3-5.9,23.5-11.4,29.1-4.1,4.1-19.5,5.6-25.1,4.9s-1.8.5-1.4-1.4l13.4-32.6h24.5Z"/>
  <path class="st8" d="M404.1,454c-1.2.9-9.9-8-11-9.5-4.1-5.6-4.6-8-2.5-14.5s7.8-15,9.5-23l15.9,15.6-11.9,31.4Z"/>
  <path class="st16" d="M145.9,420.3c32.4-2.3,75.9,20.6,99.7,41.7s47.4,49.1,31.3,76.3c-6.7,11.3-39.4,40.6-51.4,46.6-61.3,30.3-125.9-17.5-124.4-83.4.3-11.5,5.4-47.6,8.7-58.2,4.9-15.6,21.1-21.8,36.1-22.9ZM152.1,495c-2.4-.7-4.8-.8-6.5-3l-.4,2.9c1.2.2,2.5.3,3.5,1,4.5,3.3,7.6,9,13.5,12.1.5,2.4,3,2.3,4,3s2,1.3,3,2c23.1,16.2,64.8,39.5,91.7,20.2,10-7.1,6.3-15.9,2.3-25.2s.1-.7,0-1c-1.3-2.7-2.6-3.3-3-4-.9-1.6-1.4-2-2-3s.2-.8,0-1c-.7-1-1.3-2-2-3s-.5-2-1.1-2.8l-7.9-1.2h-2s1,1,1,1c-.4.5-.6,1.4-1,2-.5-.1-1.3.4-1.8-.1l-1.7-3.8-2.5.6c1,7.3-5.6,1.4-8.5.4-10.6-3.3-18.5,2.1-28.3,3.8s-3-.9-3.2-.8c17-5.6,35.1-8.6,52.6-3.1,1.3.6,1.9-.3,1.4-1.4s-17.1-17.4-19.5-19.5c-21.4-18.4-68.3-43.2-96.7-33.7-4.8,1.6-9.9,5.5-11.8,10.2-7.7,18.6,11.6,39.5,27,47.5ZM238.1,556c-47.3-5-91.5-35.1-120-72-2.6,21.5-1.4,40.1,9.2,59.3,24.2,43.7,76.6,46.2,110.8,12.7Z"/>
  <path class="st8" d="M152.1,495c-15.4-8-34.7-29-27-47.5s7-8.6,11.8-10.2c28.4-9.5,75.3,15.4,96.7,33.7s18.9,18.1,19.5,19.5,0,1.9-1.4,1.4c-17.5-5.5-35.6-2.5-52.6,3.1-16.8,2.9-22.2,5.7-40,2s-2.1-.8-3-1-.7,0-1,0-.8-.6-2-1-.7,0-1,0Z"/>
  <path class="st7" d="M238.1,556c-34.2,33.5-86.6,31-110.8-12.7-10.6-19.1-11.8-37.8-9.2-59.3,28.5,36.9,72.7,67,120,72Z"/>
  <path class="st7" d="M239.1,504c5.2.7,10.8,2.5,17,3,1.7,2.4,4.7,2.5,7,1,4.1,9.4,7.8,18.1-2.3,25.2-27,19.3-68.7-4.1-91.7-20.2,1.8-4.3,5.9,0,8.5,0s8.5-2.4,11-2.9l15.9-1,.5-3.1c7.1,1.8,15.2-1.6,22.5-2s10-.1,11.4,0Z"/>
  <path class="st18" d="M199.1,495c.2,0,1,1.2,3.2.8,9.8-1.7,17.7-7.1,28.3-3.8,3,.9,9.5,6.9,8.5-.4l2.5-.6,1.7,3.8c.5.5,1.3,0,1.8.1.8.2,2.3-.4,2.9.2l2.1,4.8-11,4c-1.4-.2-9.7-.2-11.4,0-7.4.5-15.4,3.8-22.5,2l-.5,3.1-15.9,1c-2.5.5-8.9,2.8-11,2.9s-6.7-4.2-8.5,0c-1-.7-2-1.3-3-2,.3-3.7-2.9-2.4-4-3-5.9-3.1-9-8.8-13.5-12.1-1-.7-2.3-.9-3.5-1l.4-2.9c1.7,2.2,4.1,2.3,6.5,3s.7,0,1,0l2,1c.3,0,.7,0,1,0,.5,1.7,1.8,2.6,3,1,17.8,3.7,23.2.9,40-2Z"/>
  <path class="st15" d="M247.1,492l7.9,1.2c.6.8.6,2.1,1.1,2.8l-1,.5v2.5s3,0,3,0c.2.2-.2.8,0,1v2.9c0,0,2,0,2,0,.4.7,1.7,1.3,3,4-1.8,1.6-3.8-.6-5.7-.7s-1.2.7-1.3.7c-6.2-.5-11.8-2.3-17-3l11-4-2.1-4.8c-.5-.6-2.1,0-2.9-.2.4-.6.6-1.5,1-2s.9-.5,1-1ZM254.4,501c0-.7-.6-1.2-1.2-1.2s-1.2.6-1.2,1.2.6,1.2,1.2,1.2,1.2-.6,1.2-1.2Z"/>
  <path class="st18" d="M258.1,499h-3s0-2.5,0-2.5l1-.5c.7,1,1.3,2,2,3Z"/>
  <path class="st7" d="M166.1,511c-1-.7-3.5-.6-4-3,1.1.6,4.3-.7,4,3Z"/>
  <path class="st18" d="M260.1,503h-1.9c0,0,0-3,0-3,.6,1,1.1,1.4,2,3Z"/>
  <path class="st18" d="M247.1,492c-.1.5-.7.7-1,1l-1-1h2Z"/>
  <path class="st18" d="M263.1,507c.1.3-.1.7,0,1-2.3,1.5-5.3,1.4-7-1,0,0,.5-.8,1.3-.7,1.9.1,3.8,2.3,5.7.7Z"/>
  <path class="st16" d="M155.1,496l-2-1c1.2.4,1.9,1,2,1Z"/>
  <path class="st16" d="M159.1,497c-1.2,1.6-2.5.7-3-1,.9.2,1.8.8,3,1Z"/>
  <circle class="st18" cx="253.1" cy="501" r="1.2"/>
  <rect class="st17" x="376" y="483.3" width="126.7" height="105.3" rx="30.1" ry="30.1" transform="translate(214.6 -119.6) rotate(20.4)"/>
  <rect class="st8" x="385.4" y="499.7" width="100.6" height="92.3" rx="13.6" ry="13.6" transform="translate(217.8 -117.7) rotate(20.4)"/>
</svg>