<?xml version="1.0" encoding="UTF-8"?>
<svg id="Layer_1" xmlns="http://www.w3.org/2000/svg" version="1.1" viewBox="0 0 301 110">
  <!-- Generator: Adobe Illustrator 29.3.1, SVG Export Plug-In . SVG Version: 2.1.0 Build 151)  -->
  <defs>
    <style>
      .st0 {
        font-family: Nunito-Black, Nunito;
        font-size: 36px;
        font-weight: 800;
      }

      .st0, .st1 {
        fill: #fff;
      }
    </style>
  </defs>
  <path class="st1" d="M21.4,28.3c1.9-1.3,3.7-2.3,5.7-2.9,3.7-1.3,7.5-1.7,11.5-1.4,7.9.6,14.3,4.1,19.9,9.5,3.9,3.8,6.6,8.3,7.9,13.7.5,2.2.7,4.4.7,6.7,0,7.9,0,15.9,0,23.8,0,5.2,3.1,9.4,8.1,11,1.4.4,2.8.7,4.2.7,1.9,0,3.9,0,5.8.4,4.1,1,6.8,4.5,7,8.6.3,5.7-3.8,9.4-8.7,9.8-6.7.5-13.3-.2-19.5-3.2-7.3-3.6-12.8-9-15.9-16.7-.9-2.4-1.5-4.8-1.6-7.4,0-1.2-.1-2.4-.1-3.6,0-7.6-.1-15.1,0-22.7.2-6.5-5.1-10.9-10-11.7-4.1-.7-7.8.1-11,2.8-2.6,2.1-4,4.9-4,8.3,0,7.1,0,14.2,0,21.3,0,6.1-4.7,9.3-8.9,9.6-1.6.1-3.2,0-4.7-.3-4.5-1-7.1-4.7-7.1-8.9,0-21.9,0-43.7,0-65.6,0-3.9,2.5-7,5.5-8.2,3.1-1.2,6.2-1.2,9.3-.1,3.8,1.4,6,4.6,6,8.6,0,5.5,0,11,0,16.4v1.4"/>
  <path class="st1" d="M92.1,54.6c0,6.8,0,13.6,0,20.4,0,.9,0,1.8-.2,2.7-.6,3.4-2.7,5.7-5.8,6.9-2.9,1.1-5.9,1.1-8.8,0-3.7-1.4-5.9-4.5-5.9-8.5,0-14.2,0-28.3,0-42.5,0-5.1,3.5-8.2,7.3-9.1,2.7-.6,5.3-.4,7.9.4,3.4,1.1,5.3,3.7,5.5,7.4,0,.8,0,1.5,0,2.3,0,6.7,0,13.4,0,20.1"/>
  <path class="st1" d="M92.1,11.4c.2,5-4.3,10.5-10.4,10.5-5.9,0-10.8-5.3-10.5-11.4.3-5.2,5.2-9.9,10.6-9.8,6,0,10.6,5.4,10.3,10.7"/>
  <text class="st0" transform="translate(103.9 52.4) scale(1 1)"><tspan x="0" y="0">Let’s Drink</tspan></text>
  <text class="st0" transform="translate(103.7 85.3) scale(1 1)"><tspan x="0" y="0">Better.</tspan></text>
</svg>