<?xml version="1.0" encoding="UTF-8"?>
<svg id="Layer_1" xmlns="http://www.w3.org/2000/svg" version="1.1" viewBox="0 0 1536 1024">
  <!-- Generator: Adobe Illustrator 29.4.0, SVG Export Plug-In . SVG Version: 2.1.0 Build 152)  -->
  <defs>
    <style>
      .st0 {
        fill: #5b7275;
      }

      .st1 {
        fill: #1ea340;
      }

      .st2 {
        fill: #476269;
      }

      .st3 {
        fill: #d4d8d9;
      }

      .st4 {
        fill: #36b25f;
      }

      .st5 {
        fill: #36b260;
      }

      .st6 {
        fill: #60767a;
      }

      .st7 {
        fill: #bac3c4;
      }

      .st8 {
        fill: #fcf9f6;
      }

      .st9 {
        fill: #bcc4c5;
      }

      .st10 {
        fill: #758485;
      }

      .st11 {
        fill: #0a9b2d;
      }

      .st12 {
        fill: #74888b;
      }

      .st13 {
        fill: #e3e2e0;
      }

      .st14 {
        fill: #778a8d;
      }

      .st15 {
        fill: #546c70;
      }

      .st16 {
        fill: #e8f5e9;
      }

      .st17 {
        fill: #189f38;
      }

      .st18 {
        fill: #36b360;
      }

      .st19 {
        fill: #788b8d;
      }

      .st20 {
        fill: #9eaaad;
      }

      .st21 {
        fill: #bcc4c6;
      }
    </style>
  </defs>
  <rect class="st16" width="1536" height="1024"/>
  <path class="st5" d="M776,326c13.6,2,27.2,5.9,40,11,13.9,5.5,28.5,13.5,39,24s2.9,4.3,6,5c.4.3.7.7,1,1,2.3,2.9,4.9,5.4,7.2,8.3s2.2,3.8,2.8,1.7c2.3,2.6,9.3,12.2,11,12.6s8.5-4.1,11-5.6l7.7-2.8c3.4-1.2,9-7.8,12.4-5.7,4.5,8.6,6.5,18.2,9,27.5,3.4,12.7,6.4,25.4,8,38.5.2,1.9-1.3,4.1,2,3.5,2.8,23.5,2.6,43.7-2,67l-16,44c-2.6,4.6-4.8,7.8-8,12l-14,15c-.4.3-.6.7-1,1-2.5,0-2.8,1.7-4,3-5.5,6.1-9.2,7.9-16,12-12.4,7.4-24.2,11-36.3,17.2-8.9,4.6-2.4,8.5-5.3,14.7s-8.8,7.6-10.5,9c-12.1,10.3-23.1,16.4-38,22-8.1,1.4-15.8,3.9-24,5s-20.1,1.6-28.5,1.1-6.2-5.7-6.5,0c-2.5-.4-5.8-.5-8-1,.6-2.9-1.4-1.8-3.2-2.3-18-4.7-36.8-13.2-52.1-23.8-4.2-2.9-8.4-8.9-13.8-10-14.2-12.5-23.7-23.9-34-40-1.7-5.2-4.6-11.3-7.1-16.2-9.1-17.9-14.8-33-17.9-53.3s1.3-4-2-3.5v-5c-.4-11.2.5-24.5,0-36v-7c3.2.6,1.7-1.6,2-3.4,3.7-21.3,9.4-38.3,19-57.6,17.6-35.4,43.1-57.4,79-73,9.4-2.5,19-5.1,28-9,3-.6,6-1.5,9-2-.3,4.5,2.9.1,4.6,0,16.2-1.3,33.5-1.3,49.4,1v.2ZM776,353c-21.5-4-41.8-4.5-63,2.5s-3.5-.2-3,2.5c-5.9,1.6-10.2,2.6-16,5-16.4,6.9-35.4,22-46,36-7.9,10.4-15.9,22-21,34-2.7-.6-1.8,1.5-2.5,2.9-5.3,11.8-7.1,20.5-9.5,33.1s-2.7,11.9-3,18c-1.8,41.4,13.5,83.4,42,112.5s2.2,2.4,4,2.5c3.4,3.6,6.3,6.7,10,10,12.9,11.5,28.7,21.8,46,26,3.1.8,5.1.6,8,1s0,.9,1,1h1c1.8,1.3,5.3,1.8,7.5,2,12.9.9,24.5-1.1,36.5-5.5,13.1-4.8,25.5-13.5,36-23.5,6.4-5.1,12-10.5,17.6-16.4.3-.3,3.1-3.5,1.4-3.6,13.8-16.4,25.3-35.7,35-54s18.6-48,27.1-75.2,5.2-3.6,0-3.8c1.3-5.7,2.6-11,2-17-1.1,0-2-.3-3,.5s-8.7,18.8-10.2,21.8c-3.2,6.6-6.5,13.1-9.8,19.7-6,12.1-11.7,24.3-18.4,36.1-.6,1-2.7,3.3-.6,3.9-4.4,8-9.6,17.3-14.6,24.9s-17.8,26.5-20.8,26c-3-1.7-3-5-3.6-8-9.7-49-15.1-82.5,16.7-125.3,1-1.4,1.3-5.1,3.3-6.7,9.4-11.1,20-22.5,33-29.5,1.1-.7,1.2-1.6.9-2.8-.6-2.2-8.7-10.2-10.9-12.2-12.1-11.4-27.6-22.3-43-28.5.5-2.5-1.2-2.1-2.7-2.7-9.4-3.8-17.5-5.4-27.3-7.3h-.1Z"/>
  <path class="st14" d="M1071,479c48.3,3.2,103.7,2,152.6,1.1s2.9-1,3.4-1.1c.9-.1,2-.2,2.8.3,2.6,3.4,9.4,5.7,12.3,9.5,5.1,6.7,2.5,15.1,5,21.3,2.5,6.2-.6,1.8.6,2h70.9l10.5,3c2.3,1.4,5.9,3.2,7.7,5.3,8.2,10.2,21.3,32.7,28.3,44.7l-1,.5c2.5,3,3.2,4.9,4,8.5s1.6,4.7,1.9,5.7c.6,2.3-.3,5.4,2.1,7.3-.6,6.4,0,14.4,0,21-3.3,3.7-5.3,13.4,0,16v4c-4.3-.6-.7,4.7-.9,6.4-3.5,1.2-1,2.1-1.5,4.6s-3.2,4.8-3.6,7.8c-.7.6-3,0-4.2,0s0,2.5-1.6,2l.2-3.8c1.7-.9,4.1-1.7,3.8-4.2l-8-3,2,6c-.7.7-12.4,2-14.2,3s-1.3,2.6-2.8,3.4-4.9,1.2-7,1.5l5.8,4.2-1.9,9.7-9.9,1.1c-1.1,3.8,5.2,1.2,6,2l-1,7c-22.6,25.4-61.7,14.7-68.6-18.7-.4-2.1,0-5.2-.4-7.3s.5-2.1-.6-2h-84.8c-1.1,0-.5,1.3-.6,2s0,.7,0,1v2c-1.7,2.4-1.2,6.2-2,9s-.7,2.1-1,3c-4.3,11.2-16.4,21.3-28,24-4.8-2.3-11.1-.4-16.4-1.1s-8.1-3.6-12.6-3.9h-1v-2l-1,1c-8.7-4.3-15.9-17.9-18-27v-8c-1.3-1-26.2,1.1-31.8-.7s-4.5-5.1-5.7-9.3c-1.2-45.5,0-91.1-.4-136.6,0-1.7.6-4.4-1-5.5v-2h2v-2.5l-1-.5c1.3-5.2,4.3-12.4,11-12l-.4.2ZM1075,496v137h5c3.3,0,6.7,0,10,0s1.3,0,2,0h3c2.1,0,4.3.3,6.4,0,1.8-.6,1.3-2.5,1.6-2.9,8.8-10,15.8-18.7,30.5-20,18.7-1.6,27.3,4.9,38.5,18,.3.4.7.7,1,1s.3,1.3,1,2,.6.7,1,1c1.5,1,1.3.8,3,1s.7,0,1,0c1.6,0,3.3,0,5,0h20c4,0,.7,0,1,0h12c2,0,.7,0,1,0h13v-123c-.9-.9-.2-2,0-3s2.9-3.4-1-3v-2c0-.6-.6-2.1-1-2,0-.8-.5-1.4-1-2s-.7-.7-1-1-.6-.9-1-1-.7,0-1,0h-150ZM1246,528l-.7.4c0,.2.7.5.7.6v4c0,1.3,0,.7,0,1v9c0,3,0,.7,0,1v7c0,2.3,0,.7,0,1v4c0,1.3,0,.7,0,1v12c0,4,0,.7,0,1v10c0,3.3-.7.5,0,1v4c-1.5,1,0,1.8,0,2v39c0,4.7-1,.2,0,4s-.7,2.7.6,3.1l19.8-.2c8.8-11.1,16.7-20.6,31.7-22.8,6.6,1.6,13.6,1.1,20.2,3.3,3,1,6.2,2.9,8.8,4.7,5.6,4.1,8.8,9.7,13,15h1c-.6,3,1.5,1.9,3.5,2,4.3,0,8.6,0,12.9,0,1.1,0,.5-1.3.6-2s0-1.3,0-2c1.7-1,1-3.8,1-5.5,0-9.3,0-18.7,0-28s.6-4.4-1-5.5v-3c0-1.3,0-2.7,0-4h-80c-3.3-.6-2.9-2.3-4-4l-1-54h-2c-6.6-.3-16.2-.6-22.6,0-.9,0-2.3,0-2.4,1h0ZM1288,568v1h58c-3-8.2-8.7-17.4-13.6-24.9s-7.2-12.1-10.5-14.5c-7.3-5.4-24.8-1.3-33.9-2.6v41ZM1142.3,672.4c8.5-2.9,16.2-6.9,17.6-17,5.5-39.6-49.7-35.8-43.7,0s8.5,15.3,14,17.1,2.6-.4,3.1-.2.2,1.7,2.1,2,4.6.2,5.9,0,.8-1.5,1-1.6h0ZM1285,662c-1.9.5,1,3.5,1.5,4,11.2,11.9,26.2,10.6,36.5-1.5.5-.5,2.9-3.2,1.6-3.2.2-.4.4-.8.6-1.2,2.8-5.7,3.1-12.2.9-18.1s-10.5-14-19.2-14.9-17.2,3.2-21.8,10.6-4.7,16.8,0,24.3h0Z"/>
  <path class="st4" d="M250,327c1,1.7,3.7,1.1,5.4.9,17.5-1.8,45-2.3,62.6-.9,25.6,2.1,32.8,21.9,44,41s8.1,14.3,12.6,21.1c2.1.3,14.6-6.9,17.7-8.3s4-2.1,5.4-2.7c4.5-2.1,5.8-2,10.3,0,1.9,4.1-5.2,20-7,25l-3.7,4.5c-1.4,6.1-4.3,12.3-6.3,17.5-2.9,7.8-6.2,15.9-8,24-2.1,4.7-1.2,6.5-6,9-7.5.6-14.7-1.7-22-3-19.9-3.5-39.8-7-59.6-10.8-3.6-1.6-3-4.1-4.4-7.2.9-3.5,2.7-5.7,5.8-8s17-9.3,17.2-10.6l-31.5-50.4-53.4,91.6c-5.2,3.4-8.6,3.6-14.1,1.4.5-2.2-4.8-4-7-5-.2-.4.3-1.5-.1-1.9l-15.9-7.1c-2.5-1.6-15.5-8.7-16.1-9.4-1.9-2.3-2.1-7.5-1.2-10.3,1.8-5.2,8.1-15.6,11.1-20.9,8.9-16.1,18.6-31.6,27.6-47.4,8.9-15.4,18.1-28.5,36.5-32h0Z"/>
  <path class="st5" d="M451,522c7.4,13.9,18.1,28.7,19,45.5s-1.2,12.2-1,18.5c-1,3.5-2.1,6.9-4,10-1.6.6-2.4,1.9-3.2,3.3-7.9,13.9-14.2,29.8-21.8,43.7-3.8,7-6,10.3-12,15-2.7.9-4.9,3-7.5,4-2.4.9-13,4-15,4h-47.5c-3,5.9,4.2,41.2-11.6,32-2.7-1.6-6.4-8.2-8.4-10.6-13-15.3-26.3-30.8-38-46.7-.7-1-2.1-1.1-2.8-2.4-3.5-6.2.8-11,4.8-15.3s.7-.7,1-1c1.8-1.4,4-2.1,6-3,14.2-6.6,23.4-10.6,37-22,0,1.8,3-.8,3.2-1,1-1,6.4-8.6,7.8-7-.5,6.2.2,11.5,4.7,16h56.7c1,0,.7-1.3.6-2-.5-4.8-3.8-6.5-5.3-9.3-10.1-18.4-19.8-37.4-29.7-56-2.6-4.9-3.8-1.6-3-9.7,2.7.6,2-1.3,2.3-3.1,1.5-8.8,2.2-13.7-.3-22.4-1.6-5.4-4.8-9.5-6-14.9,5.9-3.5,11.3-7.7,17-11.6,3.7-2.5,13.6-10.9,16.7-11.8s6.8-.5,9.2,1.3c11,18.4,21,37.5,31,56.5h0Z"/>
  <path class="st18" d="M183,472c2.6.4,5.6,3.7,6.5,6,1.8,5.3,3.1,14.1,4.5,20l9,60.5c-1.3,1.8-.7-1.2-1.7-1.5s-1.9.2-2.3,0c-.2-.5.1-1.4,0-2l-2,1c-2-.9-12.3-7.1-13-6.5-4.8,7.8-9.3,15.9-14,23.8s-5.3,8.9-8,13.8c-3.6-.6-2.4.3-3.3,2.2-2.2,4.3-5.6,8.2-5.7,12.8s0,.8,0,1c.2.5-.1,1.4,0,2h81c10.5,5.3,20.8,12.7,33,15v40.5c-1.2,4.4-5.5,5.2-9.5,5.6-27.5,2.6-60.8-1-88.6-1.5l-18.9-6.6c-16-11.5-19-21.6-28-38-9.4-17-22.8-33.2-21.1-53.6,1.5-16.9,16.2-32.1,22.1-47.4s2-4.7,2-5.6c.2-4.3-8.7-7.6-12-9.4-3.1-7.6-14.2-3.2-10.8-15.8,2.3-.7,4.5-2.2,6.8-2.8,7.9-2,17.3-3.3,25-5.4,4-1.1,8-2,12-3,6,.2,16.6-.4,22.3-2.1.9-.3.8-1.9,1.4-2,1.3-.1,2.7,1.1,3.8,1.1s.1-2,2-2.1,7,0,7.6.1h-.1Z"/>
  <path class="st12" d="M303,468h2c5.6.6,13.4,4.8,19,3,19.5,5.6,47.9,22.1,44.5,46-3.4,23.9-3.2,15.3-4.5,22-3.6-.6-1.5,3.3-2,5.3s-.9,2.6-1.4,4.7c-2.8,10.4-6.5,18.3-12.6,27-12.8,14.7-22.2,22.6-42,27-1.6-2.8-5.4,0-6.5,0h-23c-2.4,0-8.2-3.5-10.5-1-22.4-6.4-43.3-26.9-49.5-50s-1.8-15.6-2.5-25-2.8-11.8-1.9-19.4c2.1-18.6,27.6-31.5,43.9-35.6s33.4-5.1,47-4ZM281.8,480.3c-16,1.2-42.8,7.8-52.8,21.2-14.6,19.7,13.6,32.6,29,36,22.4,5,68.2,3.2,86.9-11.1,23.7-18.1-6.3-36.7-23.9-41.9-13.2-3.9-25.4-5.3-39.2-4.2h0ZM348,542c-35.3,16.3-82.7,19-117.5,0-.5,16.5,14.5,33.9,28.5,41.5,35.6,19.3,82.7-1.1,89-41.5Z"/>
  <path class="st19" d="M1372,628v9h2c-.5,3.9-1.6,5.3-4,8l-1,1c-1.2,1.1-4.7,3.7-6,4-2.7.5-16.4-.6-17,0h-2v5c-2,6.5-4,12.9-8,18.5-.9,1.3-2.3,1.7-3,2.5l1-7c-.8-.8-7.1,1.8-6-2l9.9-1.1,1.9-9.7-5.8-4.2c2-.4,5.3-.5,7-1.5s1.5-2.8,2.8-3.4c1.8-1,13.5-2.4,14.2-3l-2-6,8,3c.4,2.5-2.1,3.3-3.8,4.2l-.2,3.8c1.7.4.4-1.8,1.6-2s3.5.5,4.2,0c.4-3,2.9-4.7,3.6-7.8s-2-3.5,1.5-4.6c.3-1.7-3.3-7,.9-6.4l.2-.2ZM1357.5,648v1c.6-.3.6-.7,0-1Z"/>
  <path class="st15" d="M1178,650c0-.7-.5-2.1.6-2h84.8c1.1,0,.5,1.3.6,2h-86Z"/>
  <path class="st2" d="M1077,479h4c2,0,3.9-1,6-1s2.7,1,5,1,.7,0,1,0h49c7.3,0,2,0,3,0h7c2.3,0,.7,0,1,0h74c-.4,0-1.5,1-3.4,1.1-48.9,1-104.3,2.1-152.6-1.1,2.1-1,4,0,6,0Z"/>
  <path class="st15" d="M1059,496c1.7,1,1,3.8,1,5.5.5,45.5-.8,91.1.4,136.6,1.3,4.2.9,7.8,5.7,9.3s30.6-.3,31.8.7v2h-3c-6.6,0-13.4.2-20,0h-3c-1,0-3,.2-4,0-6.3-1.5-9.3-9.3-10-15v-2c4.1-44.6-2.1-92.4,1-137h0Z"/>
  <path class="st0" d="M1282,510h22c4.2,0,8.9-.4,13,0s1.4-.1,2,0c3.2.5,7.2,3.3,10,5l-10.5-3h-70.9c-1.2-.2-.4-1.5-.6-2h35Z"/>
  <path class="st11" d="M200,603l1.5,1,.5-1c9.2,0,18.9-.5,28,0,1.2.9,2.7,1.3,4,2h-79v-2h45Z"/>
  <path class="st11" d="M268,622v1c.4,9.6,1.3,28.6,0,37.4s-2.6,5.5-5.7,6.3l-89.8.2c-8.6-1.1-15.7-4.1-22.5-9l18.9,6.6c27.8.5,61.1,4.1,88.6,1.5,4-.4,8.2-1.2,9.4-5.6v-40.5h1c.2.3,0,1.4,0,2h.1Z"/>
  <path class="st17" d="M194,498c4.2,16.6,6,29.5,8.1,46.4s2.6,10.5,2.9,15.1-5.6-.3-5.8-.7c-.5-.6,0-1.4-.2-1.8-.8-.4-1.3-.7-2-1l2-1c.1.6-.1,1.5,0,2,.4.2,1.5-.3,2.3,0s.4,3.3,1.7,1.5l-9-60.5Z"/>
  <path class="st11" d="M419,603c0,.7.4,2.1-.6,2h-56.7c-4.6-4.5-5.3-9.8-4.7-16-1.4-1.6-6.8,6-7.8,7s-3.1,2.8-3.2,1c4.1-3.4,7.7-7.7,12-11,.3,3.2.6,15.8,3.6,16.9h57.4Z"/>
  <path class="st1" d="M123,519c-5.9,15.4-20.6,30.5-22.1,47.4-1.8,20.4,11.7,36.6,21.1,53.6-4.3-1.2-6.1-8.8-8.1-12.2s-6.4-8.5-8.2-12c-14.4-28.4-3.2-44,10.5-68,1.5-2.5,3.9-8.2,6.8-8.7h0Z"/>
  <path class="st17" d="M291,437c1.4,3,.8,5.5,4.4,7.2,19.8,3.8,39.7,7.4,59.6,10.8v2c-15.4-2.5-44.2-6-57.8-10.7-3-1.1-7-3.4-7.2-6.9s.9-1.9,1-2.4Z"/>
  <path class="st17" d="M606,409c-9.6,19.3-15.3,36.3-19,57.6-.3,1.9,1.1,4-2,3.4,2.4-21.1,8.4-43.7,21-61Z"/>
  <path class="st1" d="M585,518c3.2-.6,1.7,1.6,2,3.5,3.2,20.3,8.9,35.4,17.9,53.3,2.5,4.9,5.3,11,7.1,16.2-13.1-20.5-25.6-47.5-27-73Z"/>
  <path class="st1" d="M776,325v1c-15.9-2.4-33.3-2.3-49.4-1s-4.9,4.5-4.6,0c21.4-3.6,32.7-3.5,54,0Z"/>
  <path class="st11" d="M302,623c-4,4.3-8.3,9.1-4.8,15.3s2.1,1.4,2.8,2.4c11.7,15.9,25,31.4,38,46.7s5.7,9,8.4,10.6c15.7,9.2,8.6-26.1,11.6-32h47.5c2,0,12.7-3,15-4,2.5-1,4.8-3.1,7.5-4-5.8,4.6-12.1,7.7-19.6,8.9l-50.4,1.1v25.5c0,2.9-5.3,7.6-8.4,7.5-1.9-.2-7.4-5.4-9-7.1-12.1-13.3-28-33.5-39-48-6.7-8.8-11.2-15.4.4-22.9Z"/>
  <path class="st15" d="M303,468c-13.6-1.1-33.7.7-47,4v-1c11.7-3.1,28.4-5.9,40.4-4.9,1.9.2,5.1.7,6.6,1.9Z"/>
  <path class="st1" d="M723,668c.3-5.6,6,0,6.5,0,8.4.5,20.2,0,28.5-1.1v2c-13.4,1.8-22.1.9-35-1Z"/>
  <path class="st17" d="M394,476c-5.7,3.9-11.1,8.1-17,11.6,1.2,5.3,4.4,9.5,6,14.9,2.5,8.7,1.8,13.6.3,22.4-.3,1.8.4,3.7-2.3,3.1.7-6.5,2.5-11.4,1.9-18.4-.8-8.3-5.4-14.4-7.9-22l19.1-11.6h-.1Z"/>
  <path class="st6" d="M306,603c-1.7.4-6.7,2-7.5,2h-21c-1.6,0-9.2-2.4-11.5-3,2.3-2.5,8.1,1,10.5,1h23c1.1,0,4.9-2.8,6.5,0Z"/>
  <path class="st11" d="M318,327c-17.6-1.4-45.1-.9-62.6.9-1.6.2-4.3.8-5.4-.9,16.7-3.1,44.6-1.2,62.5-1s4.4-.6,5.5,1Z"/>
  <path class="st1" d="M585,513c-1.8-2.3-1.9-5.7-2-8.5-.5-8.2-1-20.2,2-27.5.5,11.5-.4,24.8,0,36Z"/>
  <path class="st1" d="M183,472c-.6-.1-6.9-.2-7.6-.1-1.9.2-1.4,2.1-2,2.1-1.1,0-2.5-1.2-3.8-1.1s-.5,1.7-1.4,2c-5.6,1.7-16.2,2.2-22.3,2.1,8.6-2.1,17.8-4.9,26.6-5.9,2.9-.3,7.8-.9,10.4.9h.1Z"/>
  <path class="st17" d="M1356,456c-.3.2-1.3.5-2,1-3.4,2.3-7.1,3.2-10,6h-1c-2.2.1-4.9,1.9-6,2s-1.3,0-2,0c-3.2.4-6.8-.3-10,0v2h-3c-4-.2-8.3-.9-13-1-.6-3,1.5-1.9,3.5-2,21.9-.9,40.1.5,53.4-20.7l7.2-18.3c-.8,11-8.5,24.2-17,31h0Z"/>
  <path class="st1" d="M933,445c-3.2.6-1.7-1.6-2-3.5-1.7-13.1-4.7-25.8-8-38.5h1c3.8,14.1,7.2,27.2,9,42Z"/>
  <path class="st17" d="M646,631c5.4,1.1,9.6,7.1,13.8,10,15.3,10.6,34.1,19.1,52.1,23.8,1.7.5,3.8-.6,3.2,2.3-26.3-5.4-49.2-18.5-69-36h0Z"/>
  <path class="st1" d="M134,480c-7.7,2-17.1,3.4-25,5.4s-4.5,2-6.8,2.8c-3.4,12.6,7.8,8.2,10.8,15.8-2.6-1.4-10.1-4-11.9-6.6-3.8-5.2.3-11.3,5.7-13.2s19.3-3.6,27.2-4.3h0Z"/>
  <path class="st17" d="M713,327c-9,3.9-18.6,6.5-28,9,11.5-5,15.3-6.3,28-9Z"/>
  <path class="st17" d="M408,378c-4.5-2-5.8-2.1-10.3,0-1.4.6-3.3,1.8-5.4,2.7-3.1,1.4-15.6,8.6-17.7,8.3-4.5-6.8-8.5-14-12.6-21.1l12.7,18.9,26.1-11.7c2.4-.5,6.1.5,7.2,2.8h0Z"/>
  <path class="st8" d="M1180,377c1.3-4.3-1.9-3.6-3-6.5,2.9-2.5,3.3-6.6,8-5.5-.4,3.7-4.2,5.9-2,10-.9.6-2.3,1.4-3,2Z"/>
  <path class="st0" d="M256,471v1c-16.3,4-41.8,17-43.9,35.6s1.4,12.5,1.9,19.4c-15.2-29.6,17.4-49.6,42-56Z"/>
  <path class="st17" d="M1210,372c-6.4,1.6-12.3.9-19,2.5-11.6,2.8-18.5,9.3-25.4,18.6l-7.6,18.9c.2-3.8.7-8.5,2-12s0-.7,0-1c2.9-6.5,12.6-15.5,18-20,.8-.7,1.5-1.6,2-2,.7-.6,2.1-1.4,3-2s3.7-1.7,4-2l23-1Z"/>
  <path class="st0" d="M364,539c-3.3,16.3-4.9,24.2-16,37,6.1-8.7,9.8-16.6,12.6-27s1.2-3.8,1.4-4.7c.5-2-1.6-5.9,2-5.3Z"/>
  <path class="st17" d="M451,522c2.4-.5,2.1,1.2,2.8,2.6,10.8,22.2,22.9,34.2,15.2,61.4-.1-6.3,1.4-12.1,1-18.5-.9-16.8-11.7-31.5-19-45.5Z"/>
  <path class="st11" d="M377,458c-6,3.1-15,.1-22-1v-2c7.3,1.3,14.5,3.6,22,3Z"/>
  <path class="st8" d="M1354,457l-2.2,6.8c-1.6,1-5.7-.8-7.8-.8,2.9-2.8,6.6-3.7,10-6Z"/>
  <path class="st15" d="M324,471c-5.6,1.8-13.4-2.4-19-3,6-1.1,13.2,1.3,19,3Z"/>
  <path class="st11" d="M782,662c-7.9,3-15.5,5.8-24,7v-2c8.2-1.1,15.9-3.6,24-5Z"/>
  <path class="st8" d="M1298,510h-11c-.7-6.7,5.6,1.8,8.6-3.9l2.4,3.9Z"/>
  <path class="st1" d="M268,620h-1c-12.2-2.3-22.5-9.7-33-15s-2.8-1.1-4-2c8.9.5,10.3,4.6,17.3,8.2,4.5,2.3,19.1,5.8,20.7,8.8Z"/>
  <path class="st17" d="M872,599c-10.8,8.9-24.9,14.6-38,19.5-2.5,2.1.2,9.9-1.2,12.3s-10.8,7.8-12.8,9.2c1.7-1.5,10.1-8.2,10.5-9,2.8-6.2-3.7-10.1,5.3-14.7,12-6.2,23.9-9.8,36.3-17.2h0Z"/>
  <path class="st8" d="M1335,465v2c-3.3,0-6.7.1-10,0v-2c3.2-.3,6.8.4,10,0Z"/>
  <path class="st11" d="M924,403h-1c-2.5-9.3-4.5-19-9-27.5-3.3-2.1-8.9,4.5-12.4,5.7l-7.7,2.8c4-2.3,13-8.8,16.8-9.8s2.9-.6,4.2.2c2.6,1.6,7.8,24.2,9,28.5h.1Z"/>
  <path class="st8" d="M1178,653c0,.2,1.1,1,1.1,2.4,0,2.1-1.2,4.3-1.1,6.5h-1.9c.8-2.8.3-6.5,2-8.9h0Z"/>
  <path class="st17" d="M440,643c7.6-13.9,13.8-29.8,21.8-43.7s1.7-2.6,3.2-3.3l-25,47Z"/>
  <path class="st8" d="M1343,463l-1,4-5-2c1.1-.1,3.8-1.9,6-2Z"/>
  <path class="st17" d="M931,512c-3,15.1-8.6,30.6-16,44l16-44Z"/>
  <path class="st1" d="M162,587c-2.8,5.1-5.6,10.3-9,15,0-4.6,3.5-8.5,5.7-12.8s-.3-2.7,3.3-2.2Z"/>
  <path class="st1" d="M401,403c-2.7,7.5-6.1,14.6-9,22h-1c2-5.2,4.9-11.4,6.3-17.5l3.7-4.5Z"/>
  <path class="st17" d="M816,337c-12.8-5.1-26.4-9-40-11v-1c13.6,2.2,28,4.6,40,12Z"/>
  <path class="st17" d="M383,449c1.8-8.1,5.1-16.2,8-24h1c-3.1,7.9-5.4,16.1-9,24Z"/>
  <rect class="st8" x="1366" y="454.1" width="3" height="3" transform="translate(-1.6 4.8) rotate(-.2)"/>
  <path class="st17" d="M192,447l15.9,7.1c.5.4,0,1.5.1,1.9,2.2,1,7.5,2.8,7,5-1-.4-6.6-2.9-6.8-3.2-.5-.5,0-1.4-.2-1.8-6.3-3-9.9-5.2-16-9Z"/>
  <path class="st11" d="M309,619c-2,.9-4.2,1.6-6,3,1.6-1.6,2.5-3.8,5.5-4l.5,1Z"/>
  <path class="st8" d="M1346,650c.8,4.4-1.5,2.6-2,3v-3h2Z"/>
  <polygon class="st8" points="1169 479 1169 477 1171.5 477 1172 479 1169 479"/>
  <path class="st8" d="M1098,650v2h-3v-2h3Z"/>
  <path class="st8" d="M1075,650v2h-2.5l-.5-2h3Z"/>
  <path class="st1" d="M1289,473c-.6.6-1.4,1.4-2,2-3.1,3.1-8.4,7.7-12,11,.3-1.8,2.7-4.2,4-5.5,4.7-5,9.9-9.9,15-14.5-1.1.4-4.2,6.2-5,7Z"/>
  <polygon class="st8" points="1175 479 1175 477 1176.5 477 1177 479 1175 479"/>
  <circle class="st8" cx="1058" cy="474" r="1.2"/>
  <path class="st1" d="M155,603v2h-2c-.1-.6.2-1.5,0-2h2Z"/>
  <path class="st17" d="M907,568c-4.5,5.9-8.4,10.1-14,15l14-15Z"/>
  <path class="st11" d="M872,377c-.6,2.1-2.4-1.2-2.8-1.7-2.3-2.9-4.9-5.4-7.2-8.3,3.6,3.3,6.7,6.4,10,10Z"/>
  <path class="st17" d="M892,584c-1.3,1.1-2.5,2.3-4,3,1.2-1.3,1.5-3.1,4-3Z"/>
  <path class="st1" d="M202,603l-.5,1-1.5-1h2Z"/>
  <path class="st11" d="M861,366c-3.1-.7-4.2-3.2-6-5,2.3,1.3,4.1,3.3,6,5Z"/>
  <path class="st8" d="M1153,479h-1l.5-2,.5,2Z"/>
  <path class="st8" d="M1093,479h-1l.5-2,.5,2Z"/>
  <path class="st13" d="M268,623v-1c.1.8,0,.8,0,1Z"/>
  <path class="st8" d="M1178,651v-1h1l-1,1Z"/>
  <path class="st16" d="M776,354c10.1,1.8,20.5,5.2,30,9,15.4,6.2,30.9,17.1,43,28.5s10.3,10,10.9,12.2.2,2.1-.9,2.8c-13,7-23.6,18.4-33,29.5-31.1,36.8-34.5,75.8-23.5,122,.8,3.2,1.2,7.5,3.5,10,.6,2.9.6,6.2,3.6,8,3,.5,18.3-22.2,20.8-26,5-7.6,10.2-16.9,14.6-24.9,5.6-10.1,12.1-22.2,16.9-32.6s2.1-4.7,2.1-7.4c3.3-6.6,6.6-13.1,9.8-19.7,1.4-3,9.2-21.1,10.2-21.8s1.9-.5,3-.5c.6,6-.7,11.3-2,17-6.1,27.1-17.2,53.2-27,79-9.7,18.3-21.2,37.6-35,54-5.9,7.1-12.3,13.7-19,20-23,18.3-47.7,31.3-78.4,26.3l-1.6.7h-1l-1-1c-2.9-.4-4.9-.2-8-1l-22.9-10.6-23.1-15.4c-3.7-3.3-6.6-6.4-10-10-28-29.8-48.5-72.9-45-115s2.1-12.3,3-17c2.3-12.8,5.9-25.1,11-37s13.1-23.6,21-34c12.7-14.4,26.6-24.2,43.4-33.2,1.4-.7,3.2-.4,2.6-2.8,5.8-2.4,10.1-3.4,16-5,23-6.1,42.3-8.3,66-4h0ZM772,395c-10.8,7.9-14.3,15.9-13,29.5,2.3,23.8,30.3,26.1,40.2,6.2,4.3-8.6,4.7-29.9-5.2-34.7-6.9-5-15-6.1-22-1ZM726,404c-1.1,1.1-1.4,1.6-2,3-2.8,6.1-2.8,17.3,2.5,22s2.9.7,3.5,1,.6,1.3,1.7,1.7c1.9.6,4.9,1.4,6.8,1.4s6-4.1,6.5-4.6c4.6-4.4,7.5-12.3,6-18.5s-.9-.9-1-1c0-.3,0-.8,0-1-2-11.8-18.4-15.4-24-4ZM698,434c11.1,9.2,22.6-3.7,19-16-2.3-7.7-8.4-11.4-16.3-9.6s-10.1,19.5-2.7,25.6ZM673,428c-.2.1-1.2-.3-1.7.2s-1.9,4.2-2,4.6c-1.2,6.1-.2,9.7,3.7,14.2s.7.7,1,1c13.4,11.6,24.2-12.6,12-20s-8.2-3-13,0h0ZM767,453c-2.9-4.3-9.3-6.1-14.2-7.3-23.2-5.6-49.4,1.3-66.8,17.3-21.7,17.7-20.6,49.8-9,73,2.8,8.1,7.2,14.5,9.3,23.2,2.6,10.9,1.8,21.3,3.7,31.8s4.2,13.4,8,19c5.3,7.8,14.1,14.4,23.8,15.7,30.6,4.2,48-21.6,37.2-49.7l-7-25c0-1.3-.2-2.8,0-4,.8-5.6,2.2-10.7,4-16s0-.7,0-1l10-15c7.5-9.9,15.1-18.2,16-31.5.9-12.3-4.4-24.2-15-30.5ZM669,468c6.4-4.4,5.4-13.4-.6-17.9s-4.2-.4-4.9-3.1h-1.9c-1.4,3.5-4.5.9-6.5,5-4.8,9.5,4.2,22.8,14,16h0Z"/>
  <path class="st17" d="M826,436c-2,1.6-2.3,5.3-3.3,6.7-31.8,42.8-26.4,76.3-16.7,125.3-2.4-2.5-2.7-6.7-3.5-10-11-46.2-7.6-85.2,23.5-122Z"/>
  <path class="st1" d="M776,353v1c-23.7-4.3-43-2.1-66,4-.6-2.7,1.3-2,3-2.5,21.2-7,41.5-6.5,63-2.5Z"/>
  <path class="st1" d="M804,613c-10.6,10-22.9,18.6-36,23.5-11.9,4.4-23.5,6.4-36.5,5.5-2.2,0-5.7-.7-7.5-2l1.6-.7c30.7,5,55.4-8,78.4-26.3Z"/>
  <path class="st17" d="M885,460c5.3.1.2,3.5,0,3.8-8.5,27.2-13.4,49.5-27.1,75.2,9.8-25.8,20.9-51.9,27-79h0Z"/>
  <path class="st17" d="M627,433c-5.1,11.9-8.7,24.2-11,37l-1-1c2.3-12.5,4.2-21.3,9.5-33.1.7-1.5-.2-3.5,2.5-2.9Z"/>
  <path class="st17" d="M613,487c-3.5,42.1,17,85.2,45,115-1.9,0-2.9-1.3-4-2.5-28.5-29.1-43.8-71.2-42-112.5h1Z"/>
  <path class="st17" d="M776,353c9.8,1.8,17.9,3.5,27.3,7.3s3.2.3,2.7,2.7c-9.5-3.8-19.9-7.2-30-9v-1Z"/>
  <path class="st1" d="M616,470c-.9,4.7-2.6,12.7-3,17h-1c.3-6.1,2-12.6,3-18l1,1Z"/>
  <path class="st17" d="M714,638c-17.3-4.2-33.1-14.5-46-26l23.1,15.4,22.9,10.6Z"/>
  <path class="st17" d="M694,363c.5,2.4-1.2,2.1-2.6,2.8-16.8,8.9-30.6,18.8-43.4,33.2,10.6-14,29.6-29.1,46-36Z"/>
  <path class="st17" d="M845,525c-2.1-.7,0-2.9.6-3.9,6.7-11.8,12.4-24,18.4-36.1,0,2.7-1.1,5-2.1,7.4-4.7,10.4-11.3,22.6-16.9,32.6h0Z"/>
  <path class="st17" d="M823,593c1.8.2-1.1,3.3-1.4,3.6-5.7,5.9-11.3,11.3-17.6,16.4,6.7-6.3,13.1-12.9,19-20Z"/>
  <path class="st1" d="M723,640c-1,0-.9-1-1-1l1,1Z"/>
  <path class="st7" d="M1225,496h1c.3.4.7.7,1,1s.7.6,1,1v3c1.1.2.9-1,1-1,.4,0,.9,1.5,1,2-1.7,1-1,3.8-1,5.5-.5,39.5,2.8,83.4,0,122.1s-.2,2.5-2.1,3.4h-2c-.4-1.6-3.7-1.5-4,0h-3l-.5-1-.5,1h-6c-.4-1.6-3.7-1.5-4,0h-2l-.5-1-.5,1h-12c-2.1-2.1-5.3-2.1-8-2v2c-1.6,0-3.4,0-5,0l-.5-2-.5,2c-1.7-.2-1.5,0-3-1l-1-1c-.7-.7-.8-1.7-1-2l-1-1c-11.3-13.1-19.9-19.7-38.5-18-14.7,1.3-21.7,10-30.5,20-1.3,3.8-5.8.6-8,3h-3l-1.5-1-.5,1c-3.3,0-6.7,0-10,0l-3.1-2.4v-134.6h148.2Z"/>
  <path class="st16" d="M1271,527c.8,14.5-1.1,30.2,0,44.5s.8,5.9,3,9.5.7,3.4,4,4h80c0,1.3,0,2.7,0,4v3c.2,12.6.6,26.5,0,39v2h-18c-2.6-6-7.7-12.2-13-16-8.6-6.2-18.5-8.5-29-7-15,2.2-22.9,11.7-31.7,22.8l-19.8.2c-1.2-.3-.3-2.2-.6-3.1v-102c0-1.1,1.6-1,2.4-1,6.4-.6,16-.3,22.6,0h0Z"/>
  <path class="st16" d="M1346,569h-58v-1c-1.7-12.3,1.3-28.3,0-41,9.1,1.3,26.7-2.8,33.9,2.6s8,10.8,10.5,14.5c4.9,7.5,10.6,16.7,13.6,24.9Z"/>
  <path class="st16" d="M1326.1,642c.8,6.7.8,11.6-.9,18.1-.2.4-.4.8-.6,1.2-4,7.1-11.5,11.5-19.6,11.6s-15.7-4-20-10.9c-4.6-7.5-4.6-16.9,0-24.3s13.1-11.5,21.8-10.6,16.2,6.7,19.2,14.9Z"/>
  <path class="st16" d="M1142.3,672.4c-.3,0-.4,1.4-1,1.6-1.3.3-4.5.3-5.9,0s-1.3-1.8-2.1-2-1.9.6-3.1.2c-5.5-1.7-13-11.2-14-17.1-6.1-35.7,49.2-39.4,43.7,0-1.4,10.1-9.1,14.1-17.6,17h0Z"/>
  <path class="st3" d="M1225,496h-148v134.6l3.1,2.4h-5v-137h150,0Z"/>
  <path class="st3" d="M1230,504c0,1.1-.4,2.5,1,3-.2,1-.9,2.1,0,3v123h-4c1.9-1,1.9-1.4,2.1-3.4,2.7-38.7-.6-82.6,0-122.1,0-1.7-.6-4.4,1-5.5v2h0Z"/>
  <path class="st6" d="M1075,633v-137,137Z"/>
  <path class="st0" d="M1231,633v-123,123Z"/>
  <path class="st0" d="M1271,527h2l1,54c-2.3-3.5-2.7-4.8-3-9.5-1.1-14.4.9-30,0-44.5Z"/>
  <path class="st6" d="M1374,585c-1.8,16.3,1.9,36.1,0,52h-2v-29c0-6.6-.6-14.6,0-21s0-1.3,0-2h2Z"/>
  <path class="st2" d="M1358,585h-80,80Z"/>
  <path class="st2" d="M1346,569h-58,58Z"/>
  <path class="st6" d="M1147,689c-9,2.1-21.9,1.8-29-5,4.4.3,8.2,3.3,12.6,3.9s11.6-1.2,16.4,1.1Z"/>
  <path class="st2" d="M1288,568v-41c1.3,12.7-1.7,28.7,0,41Z"/>
  <path class="st15" d="M1358,631c.6-12.5.2-26.4,0-39,1.7,1,1,3.8,1,5.5,0,9.3,0,18.7,0,28s.6,4.4-1,5.5Z"/>
  <path class="st19" d="M1372,624c-5.3-2.6-3.3-12.3,0-16v16Z"/>
  <path class="st6" d="M1358,633c0,.7.5,2.1-.6,2-4.3,0-8.6,0-12.9,0-1.9,0-4,1-3.5-2h17Z"/>
  <path class="st19" d="M1370,574c.5,1.1.6,2.1,1,3l1,1c.8,2.3.9,4.8,2,7h-2v2c-2.3-1.9-1.4-5-2.1-7.3s-1.3-2.9-1.9-5.7h2Z"/>
  <path class="st15" d="M1327,617v1c-2.6-1.9-5.8-3.7-8.8-4.7-6.6-2.2-13.6-1.7-20.2-3.3,10.5-1.5,20.4.8,29,7Z"/>
  <path class="st0" d="M1325.2,660.1c1.7-6.6,1.7-11.5.9-18.1,2.2,5.9,1.9,12.5-.9,18.1Z"/>
  <path class="st0" d="M1285,662c4.3,6.9,11.9,11.1,20,10.9,8.1,0,15.6-4.6,19.6-11.6,1.3,0-1.1,2.6-1.6,3.2-10.3,12.2-25.3,13.4-36.5,1.5s-3.4-3.5-1.5-4h0Z"/>
  <path class="st3" d="M1192,633h-8v-2c2.7,0,5.9,0,8,2Z"/>
  <path class="st3" d="M1095,633c2.2-2.4,6.7.8,8-3-.3.4.2,2.3-1.6,2.9-2.1.4-4.3,0-6.4,0Z"/>
  <path class="st15" d="M1060,491l1,.5v2.5h-2c.2-1.8.8-2.2,1-3Z"/>
  <path class="st20" d="M1230,504c3.9-.4,1.3,1.6,1,3-1.4-.5-.9-1.9-1-3Z"/>
  <path class="st6" d="M1370,574h-2c-.8-3.6-1.5-5.5-4-8.5l1-.5c1.7,2.9,3.6,5.9,5,9Z"/>
  <path class="st0" d="M1246,630c-1-3.8,0-2.7,0-4v4Z"/>
  <path class="st3" d="M1225,633h-4c.3-1.5,3.6-1.6,4,0Z"/>
  <path class="st3" d="M1211,633h-4c.3-1.5,3.6-1.6,4,0Z"/>
  <path class="st0" d="M1246,612v-3,3Z"/>
  <path class="st6" d="M1340,633c-4.2-5.3-7.4-10.9-13-15v-1c5.3,3.8,10.4,10,13,16Z"/>
  <path class="st3" d="M1229,500s0,1.2-1,1v-3c.5.6.9,1.2,1,2Z"/>
  <path class="st0" d="M1246,587c0-.2-1.5-1,0-2v2Z"/>
  <path class="st6" d="M1117,684c-.6,0-.9-.9-1-1l1-1v2Z"/>
  <path class="st3" d="M1092,633h-2l.5-1,1.5,1Z"/>
  <path class="st3" d="M1179,633h-1l.5-2,.5,2Z"/>
  <path class="st3" d="M1175,632c-.4-.3-.7-.7-1-1l1,1Z"/>
  <path class="st3" d="M1173,629c-.3-.3-.7-.6-1-1l1,1Z"/>
  <path class="st3" d="M1205,633h-1l.5-1,.5,1Z"/>
  <path class="st3" d="M1218,633h-1l.5-1,.5,1Z"/>
  <path class="st0" d="M1246,591v-1,1Z"/>
  <path class="st15" d="M1358,590v-1,1Z"/>
  <path class="st0" d="M1246,581c-.7-.5,0-.9,0-1v1Z"/>
  <path class="st0" d="M1246,570v-1,1Z"/>
  <path class="st0" d="M1246,557v-1,1Z"/>
  <path class="st0" d="M1246,552v-1,1Z"/>
  <path class="st0" d="M1246,544v-1,1Z"/>
  <path class="st0" d="M1246,534v-1,1Z"/>
  <path class="st0" d="M1246,529c0,0-.7-.3-.7-.6l.7-.4v1Z"/>
  <path class="st3" d="M1227,497c-.3-.3-.7-.6-1-1,.4,0,.7.7,1,1Z"/>
  <path class="st9" d="M281.8,480.3c13.7-1.1,26,.3,39.2,4.2,17.6,5.2,47.6,23.9,23.9,41.9-18.8,14.3-64.6,16.1-86.9,11.1-15.4-3.5-43.6-16.3-29-36,10-13.4,36.8-20,52.8-21.2Z"/>
  <path class="st21" d="M348,542c-6.3,40.4-53.4,60.8-89,41.5-14-7.6-29-25.1-28.5-41.5,34.8,19,82.2,16.3,117.5,0Z"/>
  <path class="st5" d="M1252,329c4.7,2,9.2-1.1,13.5-1,14.1.2,33.5,9.6,43.5,19s6.1,5.6,8,11,2.4,12.2,6.2,17.8c13.4-.8,25.7,2.3,35.8,11.2,11,10.3,15.2,22.9,14,38l-7.2,18.3c-13.3,21.2-31.4,19.8-53.4,20.7-1.9,0-4-1-3.5,2-3,0-13.3-.6-15,0-5.2,4.6-10.3,9.4-15,14.5-1.2,1.3-3.7,3.7-4,5.5-.3.3-.6.7-1,1-4,2.1-9.1,3-13.3.8-1.8-.9-10.5-11-13.7-13.8-2.1-2.3-4.1-4.9-6.4-7.1l-2.1-.9-38.5-1c-30.2-5.7-43.9-21.5-42-53l7.6-18.9c6.9-9.3,13.9-15.8,25.4-18.6s12.6-.9,19-2.5h1c.3,0,.8.1,1-.5l-1-.5c5.2-23.3,18.3-35.7,41-42h0ZM1257,387c-.4.8-.9.8-1.1,2.4-1.7,13.7.3,33.6,0,48.1,0,1.7.6,4.4-1,5.5-3.9-3.4-13.2-13.7-17.5-14.1-7.8-.7-10.4,5.3-9.5,12.1s-.3,1.2.3,1.7l24.7,23.3c.7.7,1.3,1.3,2,2,.9,3.1,3.4,4.4,6,6,.3.3.7.6,1,1,.8,1.1-.5,2.9,4.5,2.5,6.1-.4,15.6-12.8,19.9-17.5,2.9-3.1,6-6.1,8.5-9s2.4-3.8,4-5.5,6.9-4.4,6.6-7.5c-.7-7.6-6.5-10.3-13.5-8.9s-.7.9-1,1-.6.7-1,1c-1.6,1.2-1.9,2-3,3s-.7.7-1,1l-3,3c-1,1-1.3,1.3-2,2l-5,3v-53.6c.5-2.1-1.9-1.3-2-1.4-.9-1-.8-2.7-2.6-3.9-5.2-3.3-11.5-2.9-14.4,2.9h0Z"/>
  <path class="st11" d="M1247,474c-2.6-2.2-5.2-4.4-7.5-7h-31c-1.5,0-6.6-1.6-8.5-2l38.5,1,2.1.9c2.4,2.1,4.3,4.7,6.4,7.1Z"/>
  <path class="st1" d="M1274,487c-4,3.4-6.2,5.7-12.3,2.8s-11.7-12.5-14.7-15.8c3.2,2.8,11.9,12.9,13.7,13.8,4.2,2.2,9.3,1.3,13.3-.8Z"/>
  <path class="st1" d="M1319,360c2.3,4.6,3.5,9.6,5,14.6,14-1.8,25.1,3.1,35,12.4-10.2-8.8-22.5-11.9-35.8-11.2-3.8-5.6-4-11.8-6.2-17.8h1c0,.9.7,1.4,1,2Z"/>
  <path class="st6" d="M1369,646l1-1c-.3.3-.6.7-1,1Z"/>
  <path class="st6" d="M1372,578l-1-1c0,.2.8.5,1,1Z"/>
  <path class="st17" d="M1309,347c-10.1-9.4-29.5-18.9-43.5-19s-8.7,3-13.5,1c1.7-.5,3.1-1.6,5.6-1.9,18.6-2.2,39.2,5.8,51.4,19.9Z"/>
  <path class="st14" d="M1357.5,648c.6.3.6.7,0,1v-1Z"/>
  <rect class="st8" x="1340.3" y="512.8" width="5" height="2" transform="translate(826.7 1855.7) rotate(-89.9)"/>
  <path class="st17" d="M1211,372v-1l1,.5c-.2.6-.6.4-1,.5Z"/>
  <path class="st19" d="M686,463c20.3-14.7,54.8-25.5,81-10,10.7,6.3,15.9,18.3,15,30.5-.9,13.3-8.5,21.6-16,31.5,0,0-1.3-.3-1.8.2-.8.8-7.5,12.9-8.2,14.8s0,.7,0,1c-3.5,3.1-6.6,11.7-4,16-.2,1.2,0,2.7,0,4s-1.1,0-1,2.4c0,7,5.6,16.1,8,22.6,10.8,28.2-6.6,53.9-37.2,49.7-9.6-1.3-18.5-7.9-23.8-15.7l-4.3-11.2c-1.1-2.8-1.3-5.8-1.7-8.8-2.1-13.5-1.6-28.8-7.3-40.2s-5.5-9.5-7.7-13.8c-11.6-23.2-12.7-55.3,9-73Z"/>
  <path class="st10" d="M794,396c9.9,4.8,9.5,26.1,5.2,34.7-9.9,19.9-37.9,17.6-40.2-6.2-1.3-13.6,2.2-21.6,13-29.5,10-3.5,12.9-2.2,21.5,2s.4-1,.5-1Z"/>
  <path class="st10" d="M750,408c0,.2,0,.7,0,1l1,1c1.5,6.3-1.3,14.1-6,18.5s-6.1,4.6-6.5,4.6c-1.9,0-4.9-.7-6.8-1.4s-1.5-1.6-1.7-1.7c.4-3.3-3.2-2.3-4-3.7-3.4-5.5,0-13.5-2-19.3.6-1.4.9-1.9,2-3s1.3,0,1.9-.6c1.3-1.1,1.2-2.5,3.5-3.5,8.2-3.7,14.8,1.1,18.6,8.1Z"/>
  <path class="st10" d="M717,418c-2.3,6.9.5,15.8-9.5,17l-9.5-1c-7.4-6.1-7.1-23.5,2.7-25.6s14.1,1.9,16.3,9.6Z"/>
  <path class="st10" d="M686,428c7.5,11.7,4.2,25.1-12,20l-1-1c-2.6-6.1-3.2-12.9,0-19,4.8-3,8.2-2.9,13,0Z"/>
  <path class="st10" d="M655,452c2.1-4.1,5.1-1.6,6.5-5h1.9c.7,2.7,3.3,2,4.9,3.1,6.1,4.4,7,13.4.6,17.9-3.3-1.4-7.8,1.6-11-1.5-.9-.8-2.7-6-2.8-7.3-.4-2.8,1.6-5.3-.2-7.2h0Z"/>
  <path class="st0" d="M767,453c-26.2-15.5-60.7-4.7-81,10,17.4-16,43.6-23,66.8-17.3s11.3,3,14.2,7.3Z"/>
  <path class="st0" d="M677,536c2.2,4.3,5.3,9.1,7.7,13.8,5.8,11.4,5.2,26.8,7.3,40.2l-2,1c-1.9-10.5-1-21-3.7-31.8-2.1-8.7-6.5-15-9.3-23.2Z"/>
  <path class="st0" d="M724,407c2.1,5.8-1.4,13.8,2,19.3s4.4.4,4,3.7c-.6-.3-1.9.3-3.5-1-5.3-4.7-5.4-15.9-2.5-22Z"/>
  <path class="st2" d="M794,396s0,1.2-.5,1c-8.6-4.2-11.5-5.4-21.5-2,7-5.1,15.1-4,22,1Z"/>
  <path class="st0" d="M759,576c-2.5-6.4-8-15.5-8-22.6s1-2.3,1-2.4l7,25Z"/>
  <path class="st15" d="M674,448c16.2,5.1,19.5-8.3,12-20,12.2,7.4,1.4,31.6-12,20Z"/>
  <path class="st0" d="M752,547c-2.6-4.3.5-12.9,4-16-1.8,5.3-3.2,10.4-4,16Z"/>
  <path class="st15" d="M717,418c3.6,12.3-7.9,25.2-19,16l9.5,1c10-1.2,7.2-10.1,9.5-17Z"/>
  <path class="st15" d="M673,428c-3.2,6.1-2.6,12.9,0,19-4-4.5-4.9-8.2-3.7-14.2s1.8-4.4,2-4.6c.5-.6,1.5,0,1.7-.2h0Z"/>
  <path class="st15" d="M750,408c-3.8-7-10.4-11.8-18.6-8.1s-2.2,2.5-3.5,3.5-1.8.4-1.9.6c5.6-11.4,22-7.8,24,4Z"/>
  <path class="st15" d="M669,468c-9.8,6.8-18.8-6.5-14-16,1.7,1.9-.2,4.4.2,7.2s2,6.4,2.8,7.3c3.2,3.2,7.6.1,11,1.5Z"/>
  <path class="st15" d="M698,610c-3.8-5.6-6.8-12.2-8-19l2-1c.5,3,.6,5.9,1.7,8.8l4.3,11.2Z"/>
  <path class="st0" d="M766,515l-10,15c.7-1.9,7.4-14,8.2-14.8s1.7,0,1.8-.2Z"/>
  <path class="st15" d="M751,410l-1-1c0,.1.9.4,1,1Z"/>
  <path class="st16" d="M1274,388c1.5,17.7-2,38.7,0,56s0,1,0,1.5l1,.5c1.5,0,4.8-4.8,6-6s1.3-1.3,2-2l3-3c.3-.3.7-.7,1-1l3-3c.4-.3.7-.9,1-1l1-1c7-1.4,12.9,1.3,13.5,8.9.3,3.2-4.9,5.5-6.6,7.5s-2.6,4-4,5.5l-23.6,23.9c-2.6,1.7-6.7,1.6-9.4.1-.3-.4-.7-.7-1-1-1.9-2.2-4-3.9-6-6s-1.3-1.3-2-2c-8.2-8.4-16-17.3-25-25-.9-6.8,1.8-12.8,9.5-12.1s13.6,10.7,17.5,14.1c.6.5.8,2.1,2,2v-58c3-5.8,9.2-6.2,14.4-2.9,1.8,1.2,1.7,2.8,2.6,3.9h0Z"/>
  <path class="st11" d="M1274,388c0,.1,2.5-.6,2.1,1.4v53.6l4.9-3c-1.2,1.2-4.5,6-6,6l-1-2c-2-17.3,1.5-38.3,0-56Z"/>
  <path class="st11" d="M1257,387v58c-1.2,0-1.4-1.5-2-2,1.7-1,1-3.8,1-5.5.2-14.6-1.7-34.4,0-48.1.2-1.6.6-1.6,1.1-2.4h0Z"/>
  <path class="st11" d="M1295,451c-2.6,2.9-5.7,5.9-8.5,9-4.4,4.7-13.8,17.1-19.9,17.5-5.1.4-3.7-1.4-4.5-2.5,2.7,1.5,6.8,1.5,9.4-.1l23.6-23.9h0Z"/>
  <path class="st11" d="M1253,466l-24.7-23.3c-.5-.5-.2-1.2-.3-1.7,9,7.7,16.8,16.6,25,25Z"/>
  <path class="st11" d="M1255,468c2,2.1,4.1,3.8,6,6-2.6-1.6-5.1-2.9-6-6Z"/>
  <path class="st11" d="M1291,430c.3-.1.6-.9,1-1l-1,1Z"/>
  <path class="st11" d="M1287,434c1.1-1,1.4-1.8,3-3l-3,3Z"/>
  <path class="st11" d="M1283,438l3-3-3,3Z"/>
  <path class="st5" d="M1275,446l-1-.5v-1.5l1,2Z"/>
</svg>